<svg xmlns="http://www.w3.org/2000/svg" width="40" height="30" viewBox="0 0 40 30">
  <path id="Path_1777" data-name="Path 1777" d="M9.438-15.625a3.217,3.217,0,0,0-3.5,3.121,3.217,3.217,0,0,0,3.5,3.121l.792.008c3.063,0,3.52-1.57,3.52-2.506C13.75-13.809,11.321-15.625,9.438-15.625Zm.792,4.375c-.274,0-.548-.008-.792-.008-.975,0-1.625-.5-1.625-1.246s.65-1.246,1.625-1.246,2.438,1.122,2.438,1.87C11.876-11.32,11.052-11.25,10.23-11.25Zm20.331-4.375c-1.883,0-4.312,1.816-4.312,3.744,0,.936.457,2.506,3.52,2.506l.792-.008a3.217,3.217,0,0,0,3.5-3.121A3.218,3.218,0,0,0,30.562-15.625Zm0,4.367c-.244,0-.518.008-.792.008-.823,0-1.645-.07-1.645-.63,0-.748,1.462-1.87,2.438-1.87s1.625.5,1.625,1.246S31.537-11.258,30.562-11.258ZM39.53-22.269a3.1,3.1,0,0,0-2.659-1.482h-3.88l-.63-1.934A6.25,6.25,0,0,0,26.419-30H13.58a6.25,6.25,0,0,0-5.942,4.314l-.63,1.934H3.128A3.1,3.1,0,0,0,.47-22.269a3.1,3.1,0,0,0-.137,3.04l.452.907a3.643,3.643,0,0,0,1.328,1.449,6.129,6.129,0,0,0-.862,3.123v10A3.754,3.754,0,0,0,5,0h1.25A3.754,3.754,0,0,0,10-3.75V-5H30v1.25A3.754,3.754,0,0,0,33.75,0H35a3.754,3.754,0,0,0,3.75-3.75v-10a6.132,6.132,0,0,0-.862-3.123,3.636,3.636,0,0,0,1.328-1.451l.452-.9A3.107,3.107,0,0,0,39.53-22.269ZM10.016-24.911A3.742,3.742,0,0,1,13.581-27.5H26.419a3.742,3.742,0,0,1,3.566,2.588l1.6,4.91H8.416Zm-6.995,5.47-.452-.905a.62.62,0,0,1,.027-.608.608.608,0,0,1,.532-.3H6.194L5.69-19.7a7.55,7.55,0,0,0-1.8.882A1.214,1.214,0,0,1,3.021-19.441ZM7.5-3.75A1.252,1.252,0,0,1,6.251-2.5H5a1.252,1.252,0,0,1-1.25-1.25V-5H7.5Zm28.748,0A1.252,1.252,0,0,1,35-2.5h-1.25A1.252,1.252,0,0,1,32.5-3.75V-5h3.75Zm0-6.251v2.5H3.751v-6.25A3.754,3.754,0,0,1,7.5-17.5h25a3.754,3.754,0,0,1,3.75,3.75ZM37.43-20.345l-.452.9a1.213,1.213,0,0,1-.871.623,6.294,6.294,0,0,0-1.8-.882l-.5-1.548h3.066a.608.608,0,0,1,.532.3A.616.616,0,0,1,37.43-20.345Z" transform="translate(0 30)" fill="#5b59d3"/>
</svg>
