<svg xmlns="http://www.w3.org/2000/svg" width="45" height="35" viewBox="0 0 45 35" fill="#ffb858" >
  <path id="Path_1776" data-name="Path 1776" d="M44.062-20H38.057L27.179-32.086a1.25,1.25,0,0,0-1.765-.093,1.25,1.25,0,0,0-.093,1.765L34.693-20H10.307l9.372-10.414a1.25,1.25,0,0,0-.093-1.765,1.25,1.25,0,0,0-1.765.093L6.943-20H.937A.938.938,0,0,0,0-19.062v.625a.938.938,0,0,0,.937.937H2.222L4.551-.734A3.75,3.75,0,0,0,8.265,2.5h28.47A3.75,3.75,0,0,0,40.449-.734L42.778-17.5h1.285A.938.938,0,0,0,45-18.437v-.625A.938.938,0,0,0,44.062-20ZM37.973-1.078A1.255,1.255,0,0,1,36.735,0H8.265A1.255,1.255,0,0,1,7.027-1.078L4.746-17.5H40.254ZM23.75-13.125a1.25,1.25,0,0,0-1.25-1.25,1.25,1.25,0,0,0-1.25,1.25v8.75a1.25,1.25,0,0,0,1.25,1.25,1.25,1.25,0,0,0,1.25-1.25Zm8.75,0a1.25,1.25,0,0,0-1.25-1.25A1.25,1.25,0,0,0,30-13.125v8.75a1.25,1.25,0,0,0,1.25,1.25,1.25,1.25,0,0,0,1.25-1.25Zm-17.5,0a1.25,1.25,0,0,0-1.25-1.25,1.25,1.25,0,0,0-1.25,1.25v8.75a1.25,1.25,0,0,0,1.25,1.25A1.25,1.25,0,0,0,15-4.375Z" transform="translate(0 32.5)" opacity="0.8"/>
</svg>
