<svg xmlns="http://www.w3.org/2000/svg" width="128" height="128" viewBox="0 0 128 128">
  <g id="Group_9213" data-name="Group 9213" transform="translate(-124 -237)">
    <circle id="Ellipse_1407" data-name="Ellipse 1407" cx="64" cy="64" r="64" transform="translate(124 237)" fill="#ebf6ff"/>
    <g id="Group_8881" data-name="Group 8881" transform="translate(153.97 277.439)">
      <path id="Path_1418" data-name="Path 1418" d="M35.913,39.5a1.633,1.633,0,0,1,0,3.265H1.632A1.636,1.636,0,0,1,0,41.136V1.632A1.636,1.636,0,0,1,1.632,0H56.971A1.755,1.755,0,0,1,58.6,1.632V22.364a1.633,1.633,0,0,1-3.265,0V5.06L34.933,22.2a8.3,8.3,0,0,1-11.264,0l-1.306-.979L5.387,39.5ZM52.4,3.265H6.04L25.792,19.752a5.247,5.247,0,0,0,7.019,0ZM3.265,5.06V36.892L19.915,19.1Z" fill="#32506e"/>
      <path id="Path_1419" data-name="Path 1419" d="M255.181,156A15.1,15.1,0,1,1,240,171.181,15.258,15.258,0,0,1,255.181,156Zm0,3.265a11.983,11.983,0,0,0-11.916,11.917,11.918,11.918,0,0,0,23.833,0A11.983,11.983,0,0,0,255.181,159.265Z" transform="translate(-200.822 -130.535)" fill="#1cb51c"/>
      <path id="Path_1420" data-name="Path 1420" d="M291.573,223.959a1.617,1.617,0,0,1,2.285-2.285l2.612,2.612,5.55-5.713c1.469-1.469,3.918.816,2.285,2.285l-6.693,6.856a1.575,1.575,0,0,1-2.285,0Z" transform="translate(-243.58 -182.497)" fill="#1cb51c"/>
    </g>
  </g>
</svg>
