<svg xmlns="http://www.w3.org/2000/svg" fill='black' width="26.671" height="17.374" viewBox="0 0 26.671 17.374"><g transform="translate(-1.72 -7.53)"><path d="M28.175,15.823c-2.795-5.167-7.7-8.293-13.12-8.293a14.933,14.933,0,0,0-13.1,8.293l-.232.39.216.4c2.795,5.167,7.7,8.293,13.12,8.293a14.9,14.9,0,0,0,13.12-8.293l.216-.4ZM15.056,23.2A13.192,13.192,0,0,1,3.611,16.213,13.192,13.192,0,0,1,15.056,9.222a13.246,13.246,0,0,1,11.436,6.991A13.239,13.239,0,0,1,15.056,23.2Z"/><path d="M16.928,11.17a5.689,5.689,0,1,0,4.041,1.643,5.689,5.689,0,0,0-4.041-1.643Zm0,9.72a4.039,4.039,0,1,1,2.883-1.177,4.031,4.031,0,0,1-2.883,1.177Z" transform="translate(-1.632 -0.621)"/></g></svg>