<svg xmlns="http://www.w3.org/2000/svg" width="29.275" height="29.215" viewBox="0 0 29.275 29.215">
  <g id="Group_8885" data-name="Group 8885" transform="translate(-0.75 -0.75)">
    <path id="Path_1428" data-name="Path 1428" d="M3.239,1A1.74,1.74,0,0,0,1.5,2.739v3.3a.566.566,0,0,0,.6.6.566.566,0,0,0,.6-.6v-3.3a.537.537,0,0,1,.54-.54h3.3a.566.566,0,0,0,.6-.6.566.566,0,0,0-.6-.6Z" transform="translate(-0.2)" fill="#fff" stroke="#fff" stroke-width="0.5"/>
    <path id="Path_1429" data-name="Path 1429" d="M2.1,33a.566.566,0,0,0-.6.6v3.237a1.74,1.74,0,0,0,1.739,1.739h3.3a.6.6,0,0,0,0-1.2h-3.3a.537.537,0,0,1-.54-.54V33.6A.6.6,0,0,0,2.1,33Z" transform="translate(-0.2 -12.816)" fill="#fff" stroke="#fff" stroke-width="0.5"/>
    <path id="Path_1430" data-name="Path 1430" d="M43,38.575a1.74,1.74,0,0,0,1.739-1.739V33.6a.6.6,0,0,0-1.2,0v3.237a.537.537,0,0,1-.54.54H39.7a.6.6,0,0,0,0,1.2Z" transform="translate(-15.26 -12.816)" fill="#fff" stroke="#fff" stroke-width="0.5"/>
    <path id="Path_1431" data-name="Path 1431" d="M44.136,6.635a.566.566,0,0,0,.6-.6v-3.3A1.74,1.74,0,0,0,43,1H39.7a.566.566,0,0,0-.6.6.566.566,0,0,0,.6.6H43a.537.537,0,0,1,.54.54v3.3A.645.645,0,0,0,44.136,6.635Z" transform="translate(-15.26)" fill="#fff" stroke="#fff" stroke-width="0.5"/>
    <path id="Path_1432" data-name="Path 1432" d="M29.176,16.211H24.44a8.853,8.853,0,0,0,.06-1.259c0-5.575-3.477-9.052-9.112-9.052S6.275,9.317,6.275,14.892a8.854,8.854,0,0,0,.06,1.259H1.6a.6.6,0,0,0,0,1.2H6.515a14.682,14.682,0,0,0,4.256,8.273v1.5A4.509,4.509,0,0,1,8.793,30.6a.645.645,0,0,0-.12.839.545.545,0,0,0,.48.24.852.852,0,0,0,.36-.12,5.59,5.59,0,0,0,2.4-4.436v-.6A6.6,6.6,0,0,0,15.388,27.6a6.6,6.6,0,0,0,3.477-1.079v.6a5.676,5.676,0,0,0,2.4,4.436.852.852,0,0,0,.36.12.545.545,0,0,0,.48-.24.586.586,0,0,0-.12-.839A4.509,4.509,0,0,1,20,27.122v-1.5A14.878,14.878,0,0,0,24.26,17.35h4.916a.566.566,0,0,0,.6-.6C29.775,16.391,29.536,16.211,29.176,16.211Zm-21.7-1.319c0-4.916,2.937-7.853,7.913-7.853S23.3,9.977,23.3,14.892a8.854,8.854,0,0,1-.06,1.259H7.534A8.854,8.854,0,0,1,7.474,14.892Zm7.913,11.63c-3.717,0-6.834-4.556-7.673-9.112H23.061C22.222,21.966,19.1,26.522,15.388,26.522Z" transform="translate(0 -1.963)" fill="#fff" stroke="#fff" stroke-width="0.5"/>
  </g>
</svg>
