<svg xmlns="http://www.w3.org/2000/svg" width="23" height="23" viewBox="0 0 23 23">
  <g id="Group_9227" data-name="Group 9227" transform="translate(-125 -442.824)">
    <circle id="Ellipse_222" data-name="Ellipse 222" cx="11.5" cy="11.5" r="11.5" transform="translate(125 442.824)" fill="#32506e"/>
    <path id="Path_1728" data-name="Path 1728" d="M5.812-10.312A5.811,5.811,0,0,0,0-4.5,5.811,5.811,0,0,0,5.812,1.312,5.811,5.811,0,0,0,11.625-4.5,5.811,5.811,0,0,0,5.812-10.312ZM9.127-1.186A4.656,4.656,0,0,1,5.812.187,4.656,4.656,0,0,1,2.5-1.186,4.656,4.656,0,0,1,1.125-4.5,4.656,4.656,0,0,1,2.5-7.814,4.656,4.656,0,0,1,5.812-9.187,4.656,4.656,0,0,1,9.127-7.814,4.656,4.656,0,0,1,10.5-4.5,4.656,4.656,0,0,1,9.127-1.186ZM7.687-5.25A.749.749,0,0,0,8.437-6a.749.749,0,0,0-.75-.75.749.749,0,0,0-.75.75A.749.749,0,0,0,7.687-5.25Zm-3.75,0A.749.749,0,0,0,4.687-6a.749.749,0,0,0-.75-.75.749.749,0,0,0-.75.75A.749.749,0,0,0,3.937-5.25Zm4.556,1.5H3.131a.315.315,0,0,0-.316.352A2.845,2.845,0,0,0,5.653-.937h.319A2.845,2.845,0,0,0,8.81-3.4.315.315,0,0,0,8.494-3.75Z" transform="translate(131 458.824)" fill="#fff"/>
  </g>
</svg>
