<svg xmlns="http://www.w3.org/2000/svg" width="28.775" height="33.2" viewBox="0 0 28.775 33.2">
  <path id="finger-print-outline" d="M27.059,5.225a.723.723,0,0,1-.368-.1,17.753,17.753,0,0,0-8.9-2.34,17.763,17.763,0,0,0-8.905,2.34.8.8,0,0,1-1.088-.334.858.858,0,0,1,.321-1.128,19.692,19.692,0,0,1,19.314-.015.83.83,0,0,1,.335,1.113.782.782,0,0,1-.7.464ZM4.179,13.94a.812.812,0,0,1-.463-.15.848.848,0,0,1-.192-1.162,16.717,16.717,0,0,1,6-5.428A17.856,17.856,0,0,1,26,7.184a16.792,16.792,0,0,1,6,5.395.85.85,0,0,1-.192,1.162.779.779,0,0,1-1.119-.2,15.183,15.183,0,0,0-5.42-4.88,16.29,16.29,0,0,0-15.029.017A15.369,15.369,0,0,0,4.8,13.589.692.692,0,0,1,4.179,13.94Zm9.993,20.039a.738.738,0,0,1-.56-.249A16.791,16.791,0,0,1,10.4,29.345a15.15,15.15,0,0,1-1.678-7.2,9.052,9.052,0,0,1,18.1,0,.8.8,0,1,1-1.6,0,7.454,7.454,0,0,0-14.905,0,13.412,13.412,0,0,0,1.486,6.391,15.725,15.725,0,0,0,2.958,4.017.876.876,0,0,1,0,1.176.861.861,0,0,1-.592.255Zm11.464-3.071a8.381,8.381,0,0,1-4.957-1.478,8.929,8.929,0,0,1-3.8-7.287.8.8,0,1,1,1.6,0,7.213,7.213,0,0,0,3.1,5.91,6.821,6.821,0,0,0,4.062,1.176,10.2,10.2,0,0,0,1.66-.166.8.8,0,0,1,.927.681.824.824,0,0,1-.655.963,10.532,10.532,0,0,1-1.933.2Zm-3.214,3.417a.9.9,0,0,1-.208-.033A12.54,12.54,0,0,1,12.8,22.14a4.925,4.925,0,0,1,9.849,0,3.328,3.328,0,0,0,6.652,0A11.474,11.474,0,0,0,17.706,10.8a11.63,11.63,0,0,0-10.568,6.69,11.039,11.039,0,0,0-.943,4.648,17.062,17.062,0,0,0,1.07,5.993A.819.819,0,0,1,6.8,29.195a.784.784,0,0,1-1.023-.484A19.117,19.117,0,0,1,4.611,22.14,12.879,12.879,0,0,1,5.7,16.761a13.218,13.218,0,0,1,25.2,5.361,4.925,4.925,0,0,1-9.849,0,3.327,3.327,0,0,0-6.651,0,10.664,10.664,0,0,0,2.99,7.487,10.816,10.816,0,0,0,5.228,3.071.828.828,0,0,1,.56,1.012.788.788,0,0,1-.752.634Z" transform="translate(-3.374 -1.125)" />
</svg>
