<svg xmlns="http://www.w3.org/2000/svg" width="41.532" height="41.638" viewBox="0 0 41.532 41.638"><defs><style>.a{fill:#fff;stroke:#fff;}</style></defs><g transform="translate(0.501 0.558)"><path class="a" d="M36.038,22.937a14.451,14.451,0,0,0-1.486-.675,14.451,14.451,0,0,0,1.486-.675c3.985-2.026,6.619-5.538,6.484-8.645v-.473l-.405-.27a8.393,8.393,0,0,0-4.66-1.216,14.763,14.763,0,0,0-6.551,1.688A14.592,14.592,0,0,0,28,14.629a16.6,16.6,0,0,0,.135-1.891c0-4.728-2.161-8.982-5.4-10.468L22.261,2l-.473.2c-3.242,1.553-5.4,5.741-5.4,10.468a17.8,17.8,0,0,0,.135,1.891,18.19,18.19,0,0,0-2.9-1.959,14.763,14.763,0,0,0-6.551-1.688A8.393,8.393,0,0,0,2.4,12.131L2,12.468v.473c-.068,3.107,2.5,6.619,6.484,8.645a14.451,14.451,0,0,0,1.486.675,14.451,14.451,0,0,0-1.486.675C4.5,24.963,1.932,28.475,2,31.581v.473l.405.27a8.393,8.393,0,0,0,4.66,1.216,14.763,14.763,0,0,0,6.551-1.688,14.592,14.592,0,0,0,2.9-1.959,16.6,16.6,0,0,0-.135,1.891c0,4.728,2.161,8.982,5.4,10.468l.473.27.473-.2c3.242-1.553,5.4-5.741,5.4-10.468A17.8,17.8,0,0,0,28,29.96a18.191,18.191,0,0,0,2.9,1.959,14.763,14.763,0,0,0,6.551,1.688,8.393,8.393,0,0,0,4.66-1.216l.405-.27v-.473C42.589,28.475,40.023,24.963,36.038,22.937Zm-4.187-8.577a12.319,12.319,0,0,1,5.606-1.418,6.969,6.969,0,0,1,3.039.608c-.2,2.229-2.364,4.8-5.4,6.416A15.005,15.005,0,0,1,30.5,21.383c-.338,0-.675.068-1.013.068a7.48,7.48,0,0,1-1.283-.135,4.477,4.477,0,0,1-1.756-.54C26.651,18.479,28.812,15.913,31.851,14.359Zm-9.59-10.2c2.3,1.418,3.85,4.8,3.85,8.51s-1.553,7.159-3.85,8.51c-2.3-1.418-3.85-4.8-3.85-8.51S19.964,5.579,22.261,4.161ZM9.5,19.9c-3.039-1.553-5.2-4.12-5.4-6.416a6.766,6.766,0,0,1,3.039-.608,13.493,13.493,0,0,1,5.606,1.418c3.039,1.553,5.2,4.12,5.4,6.416a6.687,6.687,0,0,1-1.756.54,7.48,7.48,0,0,1-1.283.135,5.112,5.112,0,0,1-1.013-.068A14.46,14.46,0,0,1,9.5,19.9ZM12.67,30.163a12.319,12.319,0,0,1-5.606,1.418,6.969,6.969,0,0,1-3.039-.608c.2-2.229,2.364-4.8,5.4-6.416a15.005,15.005,0,0,1,4.593-1.418c.338,0,.675-.068,1.013-.068a7.48,7.48,0,0,1,1.283.135,4.477,4.477,0,0,1,1.756.54C17.871,26.043,15.709,28.61,12.67,30.163Zm9.59,10.2c-2.3-1.418-3.85-4.8-3.85-8.51s1.553-7.159,3.85-8.51c2.3,1.418,3.85,4.8,3.85,8.51S24.557,38.943,22.261,40.361Zm15.2-8.712a13.493,13.493,0,0,1-5.606-1.418c-3.039-1.553-5.2-4.12-5.4-6.416a6.687,6.687,0,0,1,1.756-.54,7.48,7.48,0,0,1,1.283-.135,5.112,5.112,0,0,1,1.013.068,12.044,12.044,0,0,1,4.593,1.418c3.039,1.553,5.2,4.12,5.4,6.416A6.969,6.969,0,0,1,37.457,31.649Z" transform="translate(-1.998 -2)"/></g></svg>