<svg xmlns="http://www.w3.org/2000/svg" width="23.558" height="23.668" viewBox="0 0 23.558 23.668"><defs><style>.a{fill:#8f3021;stroke:#8f3021;}</style></defs><g transform="translate(0.501 0.558)"><path class="a" d="M20.943,13.652a8.043,8.043,0,0,0-.827-.376,8.042,8.042,0,0,0,.827-.376c2.218-1.128,3.684-3.082,3.608-4.811V7.826l-.226-.15A4.671,4.671,0,0,0,21.732,7a8.216,8.216,0,0,0-3.646.94,8.121,8.121,0,0,0-1.616,1.09,9.24,9.24,0,0,0,.075-1.052c0-2.631-1.2-5-3.007-5.826L13.275,2l-.263.113C11.208,2.977,10,5.308,10,7.939a9.9,9.9,0,0,0,.075,1.052A10.124,10.124,0,0,0,8.464,7.9a8.216,8.216,0,0,0-3.646-.94,4.671,4.671,0,0,0-2.594.677L2,7.826v.263C1.961,9.818,3.39,11.773,5.607,12.9a8.042,8.042,0,0,0,.827.376,8.043,8.043,0,0,0-.827.376C3.39,14.78,1.961,16.734,2,18.463v.263l.226.15a4.671,4.671,0,0,0,2.594.677,8.216,8.216,0,0,0,3.646-.94,8.121,8.121,0,0,0,1.616-1.09A9.24,9.24,0,0,0,10,18.576c0,2.631,1.2,5,3.007,5.826l.263.15.263-.113c1.8-.865,3.007-3.195,3.007-5.826a9.9,9.9,0,0,0-.075-1.052,10.124,10.124,0,0,0,1.616,1.09,8.216,8.216,0,0,0,3.646.94,4.671,4.671,0,0,0,2.594-.677l.226-.15V18.5C24.589,16.734,23.16,14.78,20.943,13.652Zm-2.33-4.774a6.856,6.856,0,0,1,3.12-.789,3.879,3.879,0,0,1,1.691.338C23.311,9.668,22.108,11.1,20.417,12a8.351,8.351,0,0,1-2.556.789c-.188,0-.376.038-.564.038a4.163,4.163,0,0,1-.714-.075,2.492,2.492,0,0,1-.977-.3C15.718,11.171,16.921,9.743,18.612,8.878ZM13.275,3.2a5.6,5.6,0,0,1,2.142,4.736c0,2.067-.865,3.984-2.142,4.736a5.6,5.6,0,0,1-2.142-4.736A5.6,5.6,0,0,1,13.275,3.2Zm-7.1,8.758C4.48,11.1,3.277,9.668,3.164,8.39a3.766,3.766,0,0,1,1.691-.338,7.509,7.509,0,0,1,3.12.789c1.691.865,2.894,2.293,3.007,3.571a3.722,3.722,0,0,1-.977.3,4.163,4.163,0,0,1-.714.075,2.845,2.845,0,0,1-.564-.038A8.048,8.048,0,0,1,6.171,11.961Zm1.767,5.713a6.856,6.856,0,0,1-3.12.789,3.879,3.879,0,0,1-1.691-.338c.113-1.24,1.316-2.669,3.007-3.571a8.351,8.351,0,0,1,2.556-.789c.188,0,.376-.038.564-.038a4.163,4.163,0,0,1,.714.075,2.492,2.492,0,0,1,.977.3C10.832,15.381,9.629,16.809,7.938,17.674Zm5.337,5.676a5.6,5.6,0,0,1-2.142-4.736c0-2.067.865-3.984,2.142-4.736a5.6,5.6,0,0,1,2.142,4.736A5.6,5.6,0,0,1,13.275,23.35ZM21.732,18.5a7.509,7.509,0,0,1-3.12-.789c-1.691-.865-2.894-2.293-3.007-3.571a3.722,3.722,0,0,1,.977-.3,4.163,4.163,0,0,1,.714-.075,2.845,2.845,0,0,1,.564.038,6.7,6.7,0,0,1,2.556.789c1.691.865,2.894,2.293,3.007,3.571A3.879,3.879,0,0,1,21.732,18.5Z" transform="translate(-1.998 -2)"/></g></svg>