<svg xmlns="http://www.w3.org/2000/svg" width="23" height="23" viewBox="0 0 23 23">
  <g id="Group_9226" data-name="Group 9226" transform="translate(-125 -492.824)">
    <circle id="Ellipse_221" data-name="Ellipse 221" cx="11.5" cy="11.5" r="11.5" transform="translate(125 492.824)" fill="#32506e"/>
    <path id="Path_1729" data-name="Path 1729" d="M13.137-5.205l-.744-2.983a2.066,2.066,0,0,0-2-1.562,2.734,2.734,0,0,0-1.008.225.375.375,0,0,0-.237.474l.119.356a.375.375,0,0,0,.356.256,1.463,1.463,0,0,0,.427-.122.939.939,0,0,1,1.255.645L12-5.134a3.16,3.16,0,0,0-1.684-.491,3.183,3.183,0,0,0-2.9,1.875H6.086a3.183,3.183,0,0,0-2.9-1.875A3.162,3.162,0,0,0,1.5-5.134l.7-2.782a.939.939,0,0,1,1.255-.645,1.467,1.467,0,0,0,.427.122A.375.375,0,0,0,4.236-8.7l.119-.356a.375.375,0,0,0-.237-.474A2.738,2.738,0,0,0,3.109-9.75a2.067,2.067,0,0,0-2,1.562L.363-5.205A9.264,9.264,0,0,0,0-2.437,3.188,3.188,0,0,0,3.187.75a3.179,3.179,0,0,0,3.169-3h.788a3.179,3.179,0,0,0,3.169,3A3.188,3.188,0,0,0,13.5-2.437,9.256,9.256,0,0,0,13.137-5.205ZM3.187-.375A2.065,2.065,0,0,1,1.125-2.437,2.065,2.065,0,0,1,3.187-4.5,2.065,2.065,0,0,1,5.25-2.437,2.065,2.065,0,0,1,3.187-.375Zm7.125,0A2.065,2.065,0,0,1,8.25-2.437,2.065,2.065,0,0,1,10.312-4.5a2.065,2.065,0,0,1,2.062,2.062A2.065,2.065,0,0,1,10.312-.375Z" transform="translate(130 508.824)" fill="#fff"/>
  </g>
</svg>
