<svg xmlns="http://www.w3.org/2000/svg" width="50" height="40" viewBox="0 0 50 40">
  <path id="Path_1778" data-name="Path 1778" d="M10.312-6.25H7.187a.938.938,0,0,0-.937.937v3.125a.938.938,0,0,0,.937.937h3.125a.938.938,0,0,0,.937-.937V-5.312A.938.938,0,0,0,10.312-6.25Zm0-7.5H7.187a.938.938,0,0,0-.937.937v3.125a.938.938,0,0,0,.937.937h3.125a.938.938,0,0,0,.937-.937v-3.125A.938.938,0,0,0,10.312-13.75Zm0-7.5H7.187a.938.938,0,0,0-.937.937v3.125a.938.938,0,0,0,.937.937h3.125a.938.938,0,0,0,.937-.937v-3.125A.938.938,0,0,0,10.312-21.25Zm7.5,15H14.687a.938.938,0,0,0-.937.937v3.125a.938.938,0,0,0,.937.937h3.125a.938.938,0,0,0,.937-.937V-5.312A.938.938,0,0,0,17.812-6.25Zm0-7.5H14.687a.938.938,0,0,0-.937.937v3.125a.938.938,0,0,0,.937.937h3.125a.938.938,0,0,0,.937-.937v-3.125A.938.938,0,0,0,17.812-13.75Zm0-7.5H14.687a.938.938,0,0,0-.937.937v3.125a.938.938,0,0,0,.937.937h3.125a.938.938,0,0,0,.937-.937v-3.125A.938.938,0,0,0,17.812-21.25Zm15,7.5H29.687a.938.938,0,0,0-.937.937v3.125a.938.938,0,0,0,.937.937h3.125a.938.938,0,0,0,.938-.937v-3.125A.938.938,0,0,0,32.812-13.75Zm0-7.5H29.687a.938.938,0,0,0-.937.937v3.125a.938.938,0,0,0,.937.937h3.125a.938.938,0,0,0,.938-.937v-3.125A.938.938,0,0,0,32.812-21.25Zm0-7.5H29.687a.938.938,0,0,0-.937.937v3.125a.938.938,0,0,0,.937.937h3.125a.938.938,0,0,0,.938-.937v-3.125A.938.938,0,0,0,32.812-28.75Zm10,22.5H39.687a.938.938,0,0,0-.937.937v3.125a.938.938,0,0,0,.937.937h3.125a.938.938,0,0,0,.937-.937V-5.312A.938.938,0,0,0,42.812-6.25Zm0-7.5H39.687a.938.938,0,0,0-.937.937v3.125a.938.938,0,0,0,.937.937h3.125a.938.938,0,0,0,.937-.937v-3.125A.938.938,0,0,0,42.812-13.75ZM48.125-20H40V-33.125A1.875,1.875,0,0,0,38.125-35H24.375A1.875,1.875,0,0,0,22.5-33.125V-27.5h-5v-6.875A.625.625,0,0,0,16.875-35h-1.25a.625.625,0,0,0-.625.625V-27.5H10v-6.875A.625.625,0,0,0,9.375-35H8.125a.625.625,0,0,0-.625.625V-27.5H1.875A1.875,1.875,0,0,0,0-25.625v30A.625.625,0,0,0,.625,5h1.25A.625.625,0,0,0,2.5,4.375V-25H25v-7.5H37.5v15h10V4.375A.625.625,0,0,0,48.125,5h1.25A.625.625,0,0,0,50,4.375v-22.5A1.875,1.875,0,0,0,48.125-20Z" transform="translate(0 35)" fill="#49aa36"/>
</svg>
