<svg xmlns="http://www.w3.org/2000/svg" width="16.896" height="22.139" viewBox="0 0 16.896 22.139"><defs><style>.a{fill:#7ebc0a;}</style></defs><g transform="translate(-16.376 -1.6)"><path class="a" d="M30.962,4.208A8.426,8.426,0,0,0,25.019,1.6h-.39a8.426,8.426,0,0,0-5.943,2.608,8.22,8.22,0,0,0-2.306,5.978,8.281,8.281,0,0,0,.692,3.211,10.558,10.558,0,0,0,1.153,1.738c.851,1.153,1.7,2.288,2.554,3.441l2.661,3.566c.3.39.585.781.887,1.171a3.714,3.714,0,0,0,.284.319.284.284,0,0,0,.443,0,3.133,3.133,0,0,0,.266-.319c.3-.39.585-.781.887-1.171l2.661-3.566c.851-1.135,1.7-2.288,2.554-3.441A12.3,12.3,0,0,0,32.576,13.4a8.351,8.351,0,0,0,.692-3.211A8.22,8.22,0,0,0,30.962,4.208ZM24.824,15.188a5.127,5.127,0,1,1,5.127-5.127A5.129,5.129,0,0,1,24.824,15.188Z" transform="translate(0)"/></g></svg>