<svg xmlns="http://www.w3.org/2000/svg" width="50.734" height="45.291" viewBox="0 0 50.734 45.291">
  <g id="Group_9209" data-name="Group 9209" transform="translate(0 -27.465)">
    <g id="Group_9205" data-name="Group 9205" transform="translate(12.995 43.73)">
      <path id="Path_1699" data-name="Path 1699" d="M377.248,219.758l-3.986-21.96a.744.744,0,0,0-.371-.517L362.86,191.7a.742.742,0,0,0-.42-.09l1.825,23.545-.061.027,12.006,5.386a.745.745,0,0,0,1.038-.811Z" transform="translate(-339.521 -191.609)" fill="#44c868"/>
      <path id="Path_1700" data-name="Path 1700" d="M143.514,197.034l-10.26-5.344a.742.742,0,0,0-.394-.081.768.768,0,0,1,.107,0l-1.825,23.545,12.067,5.414a.746.746,0,0,0,.3.065h0Z" transform="translate(-131.142 -191.607)" fill="#44c868"/>
    </g>
    <g id="Group_9206" data-name="Group 9206" transform="translate(0 43.73)">
      <path id="Path_1701" data-name="Path 1701" d="M14.82,191.612a.743.743,0,0,0-.42.09l-10.032,5.58A.744.744,0,0,0,4,197.8L.012,219.759a.745.745,0,0,0,1.038.811l11.941-5.357Z" transform="translate(0 -191.61)" fill="#4ce166"/>
      <path id="Path_1702" data-name="Path 1702" d="M266.547,191.628a.742.742,0,0,0-.287.081L256,197.053v23.6h0a.744.744,0,0,0,.3-.065l12.067-5.414Z" transform="translate(-230.633 -191.626)" fill="#4ce166"/>
    </g>
    <path id="Path_1703" data-name="Path 1703" d="M20.793,266.155l-.81,4.461,11.989-6.332.278-3.591.046-.6Z" transform="translate(-18.003 -209.58)" fill="#ffdb56"/>
    <path id="Path_1704" data-name="Path 1704" d="M14.077,288.294l-.108,1.392L1.98,296.019.012,306.863a.745.745,0,0,0,1.038.811l11.941-5.357,1.087-14.023Z" transform="translate(0 -234.983)" fill="#a8eefc"/>
    <g id="Group_9207" data-name="Group 9207" transform="translate(13.97 46.283)">
      <path id="Path_1705" data-name="Path 1705" d="M152.378,261.681,141.3,260.1l-.325,4.186,11.4,17.309V275.3l-6.8-10.71,6.8.814Z" transform="translate(-140.977 -255.863)" fill="#ffbb24"/>
      <path id="Path_1706" data-name="Path 1706" d="M374.651,220.05l-4.819-2.68-4.562,1.066.057.737.225,2.907Z" transform="translate(-343.044 -217.37)" fill="#ffbb24"/>
    </g>
    <path id="Path_1707" data-name="Path 1707" d="M267.542,236.991l-.432-5.574h0l-.255-3.29L256.03,232.88V236.6l7.071-3.075Z" transform="translate(-230.66 -180.779)" fill="#ffdb56"/>
    <path id="Path_1708" data-name="Path 1708" d="M382.364,285.785l-1-5.516L368.119,264.9l.4,5.22,13.582,16.372A.743.743,0,0,0,382.364,285.785Z" transform="translate(-331.642 -213.906)" fill="#ffbb24"/>
    <path id="Path_1709" data-name="Path 1709" d="M161.777,27.465a10.424,10.424,0,0,0-10.416,10.408c0,3.55,1.685,7.361,5.01,11.328a35.6,35.6,0,0,0,4.951,4.866.745.745,0,0,0,.911,0,35.607,35.607,0,0,0,4.951-4.866c3.324-3.967,5.01-7.778,5.01-11.328A10.424,10.424,0,0,0,161.777,27.465Zm3.858,10.408a3.858,3.858,0,1,1-3.858-3.854A3.856,3.856,0,0,1,165.635,37.873Z" transform="translate(-136.362)" fill="#ff4a4a"/>
    <path id="Path_1710" data-name="Path 1710" d="M244.266,27.465a10.475,10.475,0,0,0-1.344.086,10.426,10.426,0,0,1,9.073,10.321c0,3.55-1.685,7.361-5.01,11.328a37.253,37.253,0,0,1-4.063,4.129c.521.451.852.709.888.737a.745.745,0,0,0,.911,0,35.607,35.607,0,0,0,4.951-4.866c3.324-3.967,5.01-7.778,5.01-11.328A10.424,10.424,0,0,0,244.266,27.465Z" transform="translate(-218.851)" fill="#e7343f"/>
    <path id="Path_1711" data-name="Path 1711" d="M256.3,420.48l4.487-2.013L256,413.507v7.038h0A.743.743,0,0,0,256.3,420.48Z" transform="translate(-230.633 -347.789)" fill="#ffdb56"/>
    <g id="Group_9208" data-name="Group 9208" transform="translate(12.995 48.963)">
      <path id="Path_1712" data-name="Path 1712" d="M378.377,245.377a.744.744,0,0,0-.371-.517l-.79-.439-9.1,2.029h0l13.244,15.371Z" transform="translate(-344.636 -244.42)" fill="#1ea4e9"/>
      <path id="Path_1713" data-name="Path 1713" d="M143.512,320.4h0v-.744l-11.4-17.309-.975,12.574,12.067,5.414A.744.744,0,0,0,143.512,320.4Z" transform="translate(-131.14 -296.606)" fill="#1ea4e9"/>
    </g>
  </g>
</svg>
