<svg xmlns="http://www.w3.org/2000/svg" width="35.459" height="27.065" viewBox="0 0 35.459 27.065"><defs><style>.a{fill:#32506e;}.b{fill:#1b8cf4;}</style></defs><g transform="translate(-46.5 -437.468)"><path class="a" d="M30.821,33.967a.244.244,0,0,1-.071-.169V26.271a8.233,8.233,0,0,0-7.437-8.182v-1.8a.784.784,0,0,0-1.569,0v1.8a8.233,8.233,0,0,0-7.437,8.182V33.8a.244.244,0,0,1-.071.169l-1.965,1.965a1.8,1.8,0,0,0-.53,1.279v.6a1.813,1.813,0,0,0,1.812,1.812h5.5a3.524,3.524,0,0,0,6.951,0h5.5a1.813,1.813,0,0,0,1.812-1.812v-.6a1.8,1.8,0,0,0-.53-1.279ZM22.529,41a1.955,1.955,0,0,1-1.859-1.373h3.718A1.955,1.955,0,0,1,22.529,41Zm9.218-3.185a.244.244,0,0,1-.243.243H13.555a.244.244,0,0,1-.243-.243v-.6a.228.228,0,0,1,.071-.169l1.965-1.965a1.8,1.8,0,0,0,.53-1.279V26.271a6.652,6.652,0,0,1,13.3,0V33.8a1.8,1.8,0,0,0,.53,1.279l1.965,1.965a.228.228,0,0,1,.071.169Z" transform="translate(41.7 421.968)"/><path class="b" d="M11.786,33.159a.777.777,0,0,1-1.106,0,6.667,6.667,0,0,1,0-9.429.785.785,0,1,1,1.11,1.11,5.095,5.095,0,0,0,0,7.209A.79.79,0,0,1,11.786,33.159ZM9.013,34.822a.784.784,0,1,1-1.106,1.11,10.582,10.582,0,0,1,0-14.976.785.785,0,1,1,1.11,1.11,9.015,9.015,0,0,0,0,12.756Zm25.37-1.663a.784.784,0,0,1-1.106-1.11,5.1,5.1,0,0,0,0-7.209.785.785,0,0,1,1.11-1.11A6.677,6.677,0,0,1,34.383,33.159Zm5.876-4.715a10.521,10.521,0,0,1-3.1,7.488.784.784,0,1,1-1.106-1.11,9.015,9.015,0,0,0,0-12.756.785.785,0,0,1,1.11-1.11A10.534,10.534,0,0,1,40.259,28.444Z" transform="translate(41.7 421.968)"/></g></svg>