<svg xmlns="http://www.w3.org/2000/svg" width="30.415" height="29.519" viewBox="0 0 30.415 29.519">
  <g id="Group_9267" data-name="Group 9267" transform="translate(-32.335 -724.293)">
    <path id="Path_1780" data-name="Path 1780" d="M5.437-12.687a5.439,5.439,0,0,0,5.437-5.437,5.439,5.439,0,0,0-5.437-5.437A5.439,5.439,0,0,0,0-18.125,5.439,5.439,0,0,0,5.437-12.687Zm0-8.156a2.719,2.719,0,0,1,2.719,2.719,2.719,2.719,0,0,1-2.719,2.719,2.719,2.719,0,0,1-2.719-2.719A2.719,2.719,0,0,1,5.437-20.844ZM16.312-9.062a5.439,5.439,0,0,0-5.437,5.437,5.439,5.439,0,0,0,5.437,5.437A5.439,5.439,0,0,0,21.75-3.625,5.439,5.439,0,0,0,16.312-9.062Zm0,8.156a2.719,2.719,0,0,1-2.719-2.719,2.719,2.719,0,0,1,2.719-2.719,2.719,2.719,0,0,1,2.719,2.719A2.719,2.719,0,0,1,16.312-.906ZM21.631-22.5a.682.682,0,0,0-.561-1.065H19.082a.69.69,0,0,0-.549.283L.113.753A.682.682,0,0,0,.68,1.812H2.69a.69.69,0,0,0,.549-.283Z" transform="translate(41 752)" fill="#c7d7e6"/>
    <circle id="Ellipse_1411" data-name="Ellipse 1411" cx="9" cy="9" r="9" transform="translate(33 725)" fill="#fff"/>
    <path id="error-solid" d="M15.665,6a9.665,9.665,0,1,0,9.665,9.665A9.665,9.665,0,0,0,15.665,6Zm-1.2,4.832a1.208,1.208,0,1,1,2.416,0v5.549a1.208,1.208,0,0,1-2.416,0Zm1.2,10.873A1.385,1.385,0,1,1,17.05,20.32a1.385,1.385,0,0,1-1.385,1.385Z" transform="translate(26.335 718.293)" fill="#d73a49"/>
  </g>
</svg>
