<svg xmlns="http://www.w3.org/2000/svg" width="128" height="128" viewBox="0 0 128 128">
  <g id="Group_9214" data-name="Group 9214" transform="translate(-124 -237)">
    <circle id="Ellipse_1407" data-name="Ellipse 1407" cx="64" cy="64" r="64" transform="translate(124 237)" fill="#ebf6ff"/>
    <g id="Group_9183" data-name="Group 9183" transform="translate(8.849 -1.245)">
      <g id="Group_8883" data-name="Group 8883" transform="translate(180.151 284.862)">
        <path id="Path_1419" data-name="Path 1419" d="M255.559,156A15.475,15.475,0,1,1,240,171.559,15.637,15.637,0,0,1,255.559,156Zm0,3.346a12.281,12.281,0,0,0-12.213,12.213,12.214,12.214,0,0,0,24.425,0A12.281,12.281,0,0,0,255.559,159.346Z" transform="translate(-240 -156)" fill="#1cb51c"/>
        <path id="Path_1420" data-name="Path 1420" d="M291.584,224.105a1.657,1.657,0,0,1,2.342-2.342l2.677,2.677,5.688-5.855c1.506-1.506,4.015.836,2.342,2.342l-6.859,7.027a1.615,1.615,0,0,1-2.342,0Z" transform="translate(-282.55 -207.71)" fill="#1cb51c"/>
      </g>
      <path id="Subtraction_5" data-name="Subtraction 5" d="M37.983,77.353H5.869A5.845,5.845,0,0,1,0,71.484V5.868A5.844,5.844,0,0,1,5.869,0h32.2a5.842,5.842,0,0,1,5.869,5.869V19.118H40.592V15.649H3.342V58.115H40.674V54.394h3.178v17.09a5.843,5.843,0,0,1-5.868,5.868ZM3.26,61.456V71.484a2.571,2.571,0,0,0,.786,1.853,2.633,2.633,0,0,0,1.823.753H37.983a2.6,2.6,0,0,0,1.9-.795,2.3,2.3,0,0,0,.632-1.73V61.456ZM5.869,3.341A2.54,2.54,0,0,0,3.342,5.868v6.519h37.25V5.95a2.581,2.581,0,0,0-.783-1.855,2.638,2.638,0,0,0-1.825-.754Z" transform="translate(153.035 263.569)" fill="#32506e" stroke="#fff" stroke-width="0.1"/>
    </g>
  </g>
</svg>
