<svg xmlns="http://www.w3.org/2000/svg" width="29.338" height="29.709" viewBox="0 0 29.338 29.709">
  <g id="Group_8884" data-name="Group 8884" transform="translate(-77.373 -74.743)">
    <path id="Path_1423" data-name="Path 1423" d="M222.9,80.808a2.9,2.9,0,1,0-2.9-2.9A2.9,2.9,0,0,0,222.9,80.808Zm0-4.84a1.936,1.936,0,1,1-1.936,1.936A1.936,1.936,0,0,1,222.9,75.968Z" transform="translate(-130.862 -0.006)" fill="#fff" stroke="#fff" stroke-width="0.5"/>
    <path id="Path_1424" data-name="Path 1424" d="M80.572,80.808a2.9,2.9,0,1,0-2.9-2.9A2.9,2.9,0,0,0,80.572,80.808Zm0-4.84A1.936,1.936,0,1,1,78.636,77.9,1.936,1.936,0,0,1,80.572,75.968Z" transform="translate(-0.013 -0.006)" fill="#fff" stroke="#fff" stroke-width="0.5"/>
    <path id="Path_1425" data-name="Path 1425" d="M106.429,77.9a2.9,2.9,0,1,0-3.388,2.863v5.971a2.91,2.91,0,0,0-2.379,2.379H94.905a2.9,2.9,0,0,0-5.726,0H83.423a2.9,2.9,0,1,0-3.347,3.347V98.43a2.9,2.9,0,1,0,.968,0V92.459a2.91,2.91,0,0,0,2.379-2.379h5.756a2.9,2.9,0,0,0,5.726,0h5.756a2.9,2.9,0,1,0,3.347-3.347V80.761A2.908,2.908,0,0,0,106.429,77.9ZM82.5,101.293a1.936,1.936,0,1,1-1.936-1.936A1.936,1.936,0,0,1,82.5,101.293ZM80.56,91.532A1.936,1.936,0,1,1,82.5,89.6,1.936,1.936,0,0,1,80.56,91.532Zm11.482,0A1.936,1.936,0,1,1,93.978,89.6,1.936,1.936,0,0,1,92.042,91.532ZM105.46,89.6a1.936,1.936,0,1,1-1.936-1.936A1.936,1.936,0,0,1,105.46,89.6Zm-1.936-9.761A1.936,1.936,0,1,1,105.46,77.9,1.936,1.936,0,0,1,103.524,79.834Z" fill="#fff" stroke="#fff" stroke-width="0.5"/>
    <path id="Path_1426" data-name="Path 1426" d="M222.9,365a2.9,2.9,0,1,0,2.9,2.9A2.9,2.9,0,0,0,222.9,365Zm0,4.84a1.936,1.936,0,1,1,1.936-1.936A1.936,1.936,0,0,1,222.9,369.84Z" transform="translate(-130.862 -266.611)" fill="#fff" stroke="#fff" stroke-width="0.5"/>
    <path id="Path_1427" data-name="Path 1427" d="M365.236,365a2.9,2.9,0,1,0,2.9,2.9A2.9,2.9,0,0,0,365.236,365Zm0,4.84a1.936,1.936,0,1,1,1.936-1.936A1.936,1.936,0,0,1,365.236,369.84Z" transform="translate(-261.712 -266.611)" fill="#fff" stroke="#fff" stroke-width="0.5"/>
  </g>
</svg>
