<svg xmlns="http://www.w3.org/2000/svg" width="35.16" height="23.973" viewBox="0 0 35.16 23.973"><defs><style>.a{fill:#1b8cf4;}.b{fill:#32506e;}</style></defs><g transform="translate(-41.92 -277)"><g transform="translate(35.92 257)"><path class="a" d="M29.573,24.395a3.989,3.989,0,0,0-1.96,7.466,7.208,7.208,0,0,0-5.232,6.917.8.8,0,0,0,.8.8H35.966a.8.8,0,0,0,.8-.8,7.208,7.208,0,0,0-5.232-6.917,3.989,3.989,0,0,0-1.96-7.466Zm0,1.6a2.4,2.4,0,1,1-2.4,2.4A2.385,2.385,0,0,1,29.573,25.993Zm0,7.192a5.564,5.564,0,0,1,5.519,4.795H24.055A5.564,5.564,0,0,1,29.573,33.185Z"/></g><g transform="translate(-4.08 257)"><path class="b" d="M8.4,20A2.41,2.41,0,0,0,6,22.4V41.575a2.41,2.41,0,0,0,2.4,2.4H38.763a2.41,2.41,0,0,0,2.4-2.4V22.4a2.41,2.41,0,0,0-2.4-2.4Zm0,1.6H38.763a.78.78,0,0,1,.8.8V41.575a.78.78,0,0,1-.8.8H8.4a.78.78,0,0,1-.8-.8V22.4A.78.78,0,0,1,8.4,21.6Zm2.722,2.8a.8.8,0,1,0,.075,1.6h7.991a.8.8,0,0,0,.023-1.6H11.194C11.169,24.394,11.144,24.394,11.119,24.395Zm0,6.792a.8.8,0,1,0,.075,1.6h7.991a.8.8,0,0,0,.023-1.6H11.194C11.169,31.186,11.144,31.186,11.119,31.187Zm0,6.792a.8.8,0,1,0,.075,1.6h7.991a.8.8,0,0,0,.023-1.6H11.194C11.169,37.978,11.144,37.978,11.119,37.979Z" transform="translate(40)"/></g></g></svg>