<svg xmlns="http://www.w3.org/2000/svg" width="25.34" fill="#32506E" height="28.268" viewBox="0 0 25.34 28.268"><defs><style>.a{fill:#1b8cf4;}</style></defs><g transform="translate(-48.692 -355.806)"><g transform="translate(-43.908 311.529)"><path d="M117.275,49.592c-.322-.1-.642-.2-.953-.32a7.939,7.939,0,0,1-.969-.5c-.166-.1-.329-.209-.49-.323l-.1-.073c-.068-.061-.146-.115-.215-.172a8.211,8.211,0,0,1-.837-.816c-.063-.07-.124-.142-.184-.215-.029-.035-.057-.07-.086-.1-.114-.153-.223-.308-.325-.47a7.835,7.835,0,0,1-.6-1.117c-.07-.175-.135-.352-.193-.53a.932.932,0,0,0-.873-.665H100.606c-.5,0-1-.015-1.5,0h-.021a.929.929,0,0,0-.873.665c-.053.164-.11.325-.173.485a8.026,8.026,0,0,1-.525,1.015q-.154.249-.326.49l-.068.093c-.063.067-.118.151-.177.221a7.624,7.624,0,0,1-.819.834c-.07.063-.142.124-.215.181l-.052.042-.039.027c-.157.118-.317.23-.484.335a8.052,8.052,0,0,1-1.117.6c-.313.123-.631.223-.953.32a.925.925,0,0,0-.665.873v3.645c0,.641,0,1.282.045,1.922a17.943,17.943,0,0,0,4.243,10.4,19.291,19.291,0,0,0,4.488,3.808l3.346,2.122.085.054a.933.933,0,0,0,.925,0q1.532-.975,3.068-1.946c.462-.293.931-.583,1.381-.9a18.037,18.037,0,0,0,2.9-2.5,18.3,18.3,0,0,0,3.881-6.453,18.621,18.621,0,0,0,.976-6.133V50.465A.929.929,0,0,0,117.275,49.592Zm-1.142,5.159a17.677,17.677,0,0,1-.141,2.214,17.443,17.443,0,0,1-1.111,4.068,17.174,17.174,0,0,1-1.928,3.384c-.045.06-.088.121-.133.178s-.218.272-.021.03c-.112.139-.224.281-.335.42q-.317.381-.653.744a17.107,17.107,0,0,1-1.436,1.372c-.127.109-.257.215-.387.317l-.086.068c.061-.049-.116.092-.162.126q-.4.3-.825.58c-.181.118-.363.236-.547.351q-.988.626-1.977,1.254l-1.12.71-2.924-1.855-.444-.281c-.233-.148-.465-.3-.692-.462-.136-.1-.272-.2-.408-.3-.06-.045-.121-.094-.181-.139.251.19-.006-.006-.066-.054a17.109,17.109,0,0,1-1.5-1.348,13.508,13.508,0,0,1-1.318-1.5s.145.19.06.076c-.036-.048-.073-.094-.109-.142-.054-.073-.106-.145-.16-.218-.106-.145-.209-.29-.308-.438-.209-.308-.408-.623-.6-.946a15.989,15.989,0,0,1-2.08-5.99,22.663,22.663,0,0,1-.141-2.863V51.121A8.845,8.845,0,0,0,96.608,50a9.037,9.037,0,0,0,2.5-2.69,8.714,8.714,0,0,0,.6-1.215h10.215c.3,0,.6.005.9.006a8.918,8.918,0,0,0,4.369,4.639,10,10,0,0,0,.943.384v3.627Z" transform="translate(0 0)"/><path class="a" d="M318.859,335.669a.921.921,0,0,0-1.281,0l-2.4,2.4-3.793,3.793-.233.233-2.463-2.463-.441-.441a.906.906,0,0,0-1.281,1.282l3.1,3.1.441.441a.918.918,0,0,0,1.282,0l2.4-2.4,3.793-3.793.873-.873A.918.918,0,0,0,318.859,335.669Z" transform="translate(-207.638 -282.332)"/></g></g></svg>