<svg xmlns="http://www.w3.org/2000/svg" width="53.153" height="53.153" viewBox="0 0 53.153 53.153"><defs><style>.a{fill:#32506e;}.b{fill:#1cb51c;}</style></defs><g transform="translate(0 118)"><path class="a" d="M29.068,53.153H4.153A4.112,4.112,0,0,1,0,49V4.153A4.112,4.112,0,0,1,4.153,0H29.068a4.112,4.112,0,0,1,4.153,4.153V8.305a1.661,1.661,0,1,1-3.322,0V4.153a.785.785,0,0,0-.831-.831H4.153a.785.785,0,0,0-.831.831V49a.785.785,0,0,0,.831.831H29.068A.785.785,0,0,0,29.9,49V43.187a1.661,1.661,0,1,1,3.322,0V49A4.112,4.112,0,0,1,29.068,53.153Z" transform="translate(0 -118)"/><path class="a" d="M15.305,7.322H8.661A1.569,1.569,0,0,1,7,5.661,1.569,1.569,0,0,1,8.661,4h6.644a1.569,1.569,0,0,1,1.661,1.661A1.569,1.569,0,0,1,15.305,7.322Z" transform="translate(4.627 -115.356)"/><path class="a" d="M10.661,29.322a1.508,1.508,0,0,1-1.163-.5,1.606,1.606,0,0,1,0-2.325,1.6,1.6,0,0,1,2.325,0,1.606,1.606,0,0,1,0,2.325A1.508,1.508,0,0,1,10.661,29.322Z" transform="translate(5.949 -100.813)"/><path class="b" d="M14.661,36.238A1,1,0,0,1,14,36.072a1.6,1.6,0,0,1-1-1.495V12.153A4.112,4.112,0,0,1,17.153,8H40.407a4.112,4.112,0,0,1,4.153,4.153V25.441a4.112,4.112,0,0,1-4.153,4.153H23.631l-7.807,6.312A4.226,4.226,0,0,1,14.661,36.238Zm2.492-24.916a.785.785,0,0,0-.831.831V31.088L21.97,26.6a2.361,2.361,0,0,1,1-.332H40.407a.785.785,0,0,0,.831-.831V12.153a.785.785,0,0,0-.831-.831H17.153Z" transform="translate(8.594 -112.712)"/><path class="b" d="M33.61,15.322H18.661A1.569,1.569,0,0,1,17,13.661,1.569,1.569,0,0,1,18.661,12H33.61a1.569,1.569,0,0,1,1.661,1.661A1.569,1.569,0,0,1,33.61,15.322Z" transform="translate(11.238 -110.068)"/><path class="b" d="M26.966,18.322H18.661A1.569,1.569,0,0,1,17,16.661,1.569,1.569,0,0,1,18.661,15h8.305a1.569,1.569,0,0,1,1.661,1.661A1.569,1.569,0,0,1,26.966,18.322Z" transform="translate(11.238 -108.084)"/></g></svg>