<svg xmlns="http://www.w3.org/2000/svg" width="28.715" height="25.314" viewBox="0 0 28.715 25.314"><defs><style>.a{fill:#32506e;}.b{fill:#1b8cf4;}</style></defs><g transform="translate(-2 -6)"><path class="a" d="M28.92,6H3.795A1.8,1.8,0,0,0,2,7.795V25.742a1.8,1.8,0,0,0,1.795,1.795h13.46l.511-.628.835-1.023-.081-.144H3.795V7.795H28.92v7.681A7.547,7.547,0,0,1,30.715,17.1V7.795A1.8,1.8,0,0,0,28.92,6Z"/><path class="a" d="M7,12H22.255v1.436H7Z" transform="translate(-0.513 -0.616)"/><path class="a" d="M7,16h9.871v1.436H7Z" transform="translate(-0.513 -0.027)"/><path class="a" d="M7,23h8.217v1.436H7Z" transform="translate(-0.513 -2.745)"/><path class="b" d="M26.8,17.23A5.707,5.707,0,0,0,22.854,27.1l-1.741,2.127.808,3.239,3.284-4a5.617,5.617,0,0,0,3.186,0l3.284,4,.808-3.239L30.741,27.1a5.707,5.707,0,0,0-3.948-9.871Zm0,9.584a3.868,3.868,0,1,1,3.921-3.868A3.868,3.868,0,0,1,26.8,26.814Z" transform="translate(-1.955 -1.153)"/></g></svg>