<svg xmlns="http://www.w3.org/2000/svg" width="236.613" height="896.978" viewBox="0 0 236.613 896.978"><defs><style>.a,.b{fill:none;stroke-miterlimit:10;}.a{stroke:#f0f8ff;stroke-width:30px;}.b{stroke:#fff;stroke-linecap:square;stroke-width:3px;stroke-dasharray:10;}</style></defs><g transform="translate(-75.86 -821.5)"><path class="a" d="M1179.387,359.245v82.393a56.694,56.694,0,0,0,56.693,56.693h93.227A56.693,56.693,0,0,1,1386,555.024v90.2a56.693,56.693,0,0,1-56.693,56.693H1236.08a56.693,56.693,0,0,0-56.693,56.693v88.694A56.693,56.693,0,0,0,1236.08,904h93.227A56.693,56.693,0,0,1,1386,960.693v89.614A56.693,56.693,0,0,1,1329.307,1107H1236.08a56.693,56.693,0,0,0-56.693,56.693v89.53" transform="translate(-1088.527 463.755)"/><path class="b" d="M1179.387,359.245v82.393a56.694,56.694,0,0,0,56.693,56.693h93.227A56.693,56.693,0,0,1,1386,555.024v90.2a56.693,56.693,0,0,1-56.693,56.693H1236.08a56.693,56.693,0,0,0-56.693,56.693v88.694A56.693,56.693,0,0,0,1236.08,904h93.227A56.693,56.693,0,0,1,1386,960.693v89.614A56.693,56.693,0,0,1,1329.307,1107H1236.08a56.693,56.693,0,0,0-56.693,56.693v89.53" transform="translate(-1088.527 463.755)"/></g></svg>