<svg xmlns="http://www.w3.org/2000/svg" width="159.282" height="47.441" viewBox="0 0 159.282 47.441"><defs><style>.a,.b{fill:#fff;}.a{fill-rule:evenodd;}</style></defs><g transform="translate(-546 -202)"><g transform="translate(546 202)"><g transform="translate(0 0)"><g transform="translate(25.363 11.713)"><path class="a" d="M99.376,44.745a2.491,2.491,0,0,1,2.486,2.486v15.5a2.486,2.486,0,0,1-4.972,0v-15.5A2.491,2.491,0,0,1,99.376,44.745Z" transform="translate(-96.89 -44.745)"/><path class="a" d="M150.63,44.745a2.491,2.491,0,0,1,2.486,2.486v15.5a2.486,2.486,0,0,1-4.972,0v-15.5A2.491,2.491,0,0,1,150.63,44.745Z" transform="translate(-134.727 -44.745)"/><path class="a" d="M125,44.745a2.491,2.491,0,0,1,2.486,2.486v15.5a2.486,2.486,0,0,1-4.972,0v-15.5A2.491,2.491,0,0,1,125,44.745Z" transform="translate(-115.809 -44.745)"/></g><path class="a" d="M32.47,35.091a2.555,2.555,0,1,1,3.2,3.984,21.955,21.955,0,1,1,0-34.252,2.555,2.555,0,1,1-3.2,3.984,16.847,16.847,0,1,0,0,26.285Z" transform="translate(0 0)"/><path class="b" d="M193.543,39.591c0,5.09,2.635,7.473,8.159,7.473a10.63,10.63,0,0,0,3.357-.469c.9-.253,1.155-.542,1.155-1.3v-.361c0-.9-.253-1.191-1.083-.9a9.651,9.651,0,0,1-3.249.469c-4.043,0-5.632-1.336-5.632-4.946v-3.5c0-3.466,1.48-4.946,5.415-4.946a9.484,9.484,0,0,1,3.1.505c.866.289,1.083.036,1.083-.866v-.361c0-.83-.216-1.083-1.083-1.372a9.488,9.488,0,0,0-3.177-.469c-5.379,0-8.051,2.672-8.051,7.473v3.574Zm27.28-5.379c0-3.791-2.527-5.668-7.581-5.668a17.92,17.92,0,0,0-3.9.361c-.866.181-1.083.4-1.083,1.228v.289c0,.866.289,1.083,1.155.9a17.969,17.969,0,0,1,3.971-.4c3.177,0,4.729.938,4.729,3.285v2.166h-4.26c-5.018,0-7.365,1.553-7.365,5.271,0,3.646,2.491,5.416,6.787,5.416,5.235,0,7.545-1.7,7.545-5.7V34.212Zm-2.708,7.04c0,2.6-1.408,3.466-4.874,3.466-2.708,0-4.044-1.011-4.044-3.069,0-2.274,1.408-3.141,4.693-3.141h4.224v2.744Zm4.463,3.791c0,.758.253,1.083,1.155,1.336a18.61,18.61,0,0,0,5.09.686c4.657,0,6.823-1.444,6.823-4.657,0-2.455-1.011-3.646-3.61-4.838l-4.585-2.094c-1.264-.577-1.914-1.372-1.914-2.383,0-1.444,1.011-2.021,3.646-2.021a13.917,13.917,0,0,1,4.513.686c.831.253,1.155.036,1.155-.866v-.325c0-.831-.216-1.047-1.083-1.336a13.324,13.324,0,0,0-4.513-.686c-4.369,0-6.39,1.408-6.39,4.549,0,2.419.939,3.538,3.357,4.694l4.4,2.094c1.769.866,2.347,1.444,2.347,2.6,0,1.553-1.083,2.058-3.935,2.058a20.228,20.228,0,0,1-5.307-.722c-.866-.181-1.155.036-1.155.939v.289ZM238.2,45.9c0,.975.253,1.155,1.155,1.155h.4c.975,0,1.155-.18,1.155-1.155V35.8c0-3.321,1.516-4.693,4.982-4.693,3.321,0,4.621,1.192,4.621,4.079V45.9c0,.975.18,1.155,1.155,1.155h.433c.975,0,1.155-.18,1.155-1.155V34.861c0-4.224-2.238-6.318-6.679-6.318-2.708,0-4.585.83-5.668,2.455V22.586c0-.975-.18-1.155-1.155-1.155h-.4c-.9,0-1.155.181-1.155,1.155V45.9Z" transform="translate(-142.879 -15.821)"/><path class="a" d="M462.693,50.7a6.036,6.036,0,0,1,5.255-2.3c4.573,0,7,2.295,7,6.9V65.369c0,1.18-.428,1.6-1.6,1.6h-.376c-1.209,0-1.6-.388-1.6-1.6V55.3c0-2.545-.861-3.465-3.431-3.465-2.625,0-3.5.843-3.5,3.465V65.369c0,1.209-.388,1.6-1.6,1.6h-.342c-1.209,0-1.6-.388-1.6-1.6V55.3c0-2.551-.9-3.465-3.465-3.465s-3.465.914-3.465,3.465V65.369c0,1.209-.388,1.6-1.6,1.6h-.376c-1.169,0-1.6-.418-1.6-1.6V55.3c0-4.611,2.471-6.9,7.037-6.9,2.122,0,4.11.577,5.248,2.3Zm17.426,8.457v.523a4.019,4.019,0,0,0,.755,2.657c.926,1.062,2.776,1.185,4.079,1.185a16.339,16.339,0,0,0,4.515-.631c1.169-.334,1.736.2,1.736,1.373v.308c0,1.071-.421,1.41-1.417,1.713a16.612,16.612,0,0,1-4.833.672c-5.368,0-8.406-2.034-8.406-7.653V56.123c0-5.1,2.618-7.721,7.721-7.721,4.766,0,7.516,2.524,7.516,7.345a12.883,12.883,0,0,1-.106,1.908c-.138,1.146-.582,1.5-1.731,1.5H480.12Zm0-3.162h8.231v-.626c0-2.692-1.555-3.671-4.115-3.671s-4.115.979-4.115,3.671V56Z" transform="translate(-332.504 -35.732)"/></g><path class="b" d="M.93-7.14H3.394a5.05,5.05,0,0,1,2.412.458,1.67,1.67,0,0,1,.819,1.593A1.926,1.926,0,0,1,6.27-3.9a1.585,1.585,0,0,1-1.02.6v.057a2.717,2.717,0,0,1,.808.3,1.516,1.516,0,0,1,.579.6,2.144,2.144,0,0,1,.218,1.037A2.072,2.072,0,0,1,6.064.423a3.388,3.388,0,0,1-2.143.619H.93ZM2.4-3.805H3.589a1.888,1.888,0,0,0,1.2-.281,1.007,1.007,0,0,0,.327-.808.854.854,0,0,0-.4-.791,2.469,2.469,0,0,0-1.243-.241H2.4Zm0,1.18V-.184H3.726a1.74,1.74,0,0,0,1.243-.35,1.232,1.232,0,0,0,.35-.911A1.093,1.093,0,0,0,4.958-2.3a1.988,1.988,0,0,0-1.3-.321ZM13.913-5.169V1.042H12.779l-.195-.8h-.069a1.718,1.718,0,0,1-.825.7,2.883,2.883,0,0,1-1.112.218A2.332,2.332,0,0,1,8.946.618a2.241,2.241,0,0,1-.59-1.73V-5.169H9.8V-1.4a1.651,1.651,0,0,0,.275,1.043,1.049,1.049,0,0,0,.871.344,1.275,1.275,0,0,0,1.2-.55,3.1,3.1,0,0,0,.327-1.57V-5.169Zm.917,0H16.4l1.238,3.506A5.674,5.674,0,0,1,17.844-1a4.9,4.9,0,0,1,.115.647H18a5.825,5.825,0,0,1,.138-.636q.092-.338.206-.67L19.54-5.169H21.1L18.451,1.867a3.315,3.315,0,0,1-.968,1.427,2.311,2.311,0,0,1-1.507.5,3.776,3.776,0,0,1-.5-.029q-.212-.029-.361-.063V2.554q.126.023.3.046a2.911,2.911,0,0,0,.372.023,1.158,1.158,0,0,0,.848-.315,2.085,2.085,0,0,0,.493-.785l.183-.5ZM32.1,1.042H30.277L26.4-5.375h-.046q.023.516.052,1.106t.052,1.186V1.042H25.143V-7.14h1.811L30.815-.769h.034q-.011-.458-.04-1.054T30.77-2.98V-7.14H32.1Zm7.54-3.117a3.328,3.328,0,0,1-.8,2.389,2.864,2.864,0,0,1-2.177.842A3,3,0,0,1,35.147.778,2.64,2.64,0,0,1,34.1-.322a3.739,3.739,0,0,1-.378-1.753,3.3,3.3,0,0,1,.8-2.378,2.866,2.866,0,0,1,2.172-.831,3.064,3.064,0,0,1,1.524.372,2.61,2.61,0,0,1,1.043,1.089A3.7,3.7,0,0,1,39.639-2.075Zm-4.435,0a2.8,2.8,0,0,0,.35,1.524,1.245,1.245,0,0,0,1.129.539,1.248,1.248,0,0,0,1.123-.539,2.759,2.759,0,0,0,.355-1.524,2.7,2.7,0,0,0-.355-1.513,1.269,1.269,0,0,0-1.134-.527,1.24,1.24,0,0,0-1.123.527A2.771,2.771,0,0,0,35.2-2.075ZM45.987,1.042,45.3-1.628q-.057-.206-.138-.539L45-2.854q-.086-.355-.155-.659t-.1-.453h-.046q-.034.149-.1.453t-.155.659l-.166.688q-.08.332-.138.55l-.722,2.659H41.828L40.086-5.18h1.455l.768,2.968q.08.309.155.688T42.6-.8q.057.344.08.561h.046q.023-.206.086-.561t.132-.693q.069-.338.115-.51l.894-3.174h1.581l.859,3.174.12.539q.074.332.132.665a4.862,4.862,0,0,1,.069.55h.046q.023-.195.08-.533t.138-.722q.08-.384.172-.7l.779-2.968h1.432L47.592,1.042ZM51.373-.287l.08.126q-.16.607-.43,1.329T50.468,2.52H49.425q.16-.676.315-1.444t.246-1.364ZM58.707-7.14a3.4,3.4,0,0,1,2.32.659,2.355,2.355,0,0,1,.728,1.839,2.926,2.926,0,0,1-.3,1.306,2.255,2.255,0,0,1-1,.985,4.057,4.057,0,0,1-1.908.378h-.814V1.042H56.266V-7.14Zm-.092,1.215h-.882v2.739H58.4a2.468,2.468,0,0,0,1.381-.327,1.2,1.2,0,0,0,.487-1.071,1.234,1.234,0,0,0-.4-1.008A1.938,1.938,0,0,0,58.615-5.925Zm7.082.642a2.767,2.767,0,0,1,1.828.527,2.011,2.011,0,0,1,.625,1.627V1.042h-1.02L66.843.182H66.8a2.732,2.732,0,0,1-.848.739,2.631,2.631,0,0,1-1.215.235,2.06,2.06,0,0,1-1.387-.47A1.81,1.81,0,0,1,62.8-.769a1.632,1.632,0,0,1,.7-1.444,4.123,4.123,0,0,1,2.137-.539l1.077-.034v-.309a1.081,1.081,0,0,0-.286-.848,1.174,1.174,0,0,0-.8-.252,3.051,3.051,0,0,0-.9.132,6.865,6.865,0,0,0-.854.327l-.458-1.008a4.754,4.754,0,0,1,1.049-.39A5.015,5.015,0,0,1,65.7-5.284Zm1.02,3.392-.756.023a2.329,2.329,0,0,0-1.318.327.952.952,0,0,0-.367.785.737.737,0,0,0,.258.636,1.127,1.127,0,0,0,.682.189,1.615,1.615,0,0,0,1.066-.361,1.312,1.312,0,0,0,.435-1.071Zm2.315-3.277H70.6l1.238,3.506A5.674,5.674,0,0,1,72.045-1a4.9,4.9,0,0,1,.115.647h.046a5.825,5.825,0,0,1,.138-.636q.092-.338.206-.67l1.192-3.506H75.3L72.653,1.867a3.315,3.315,0,0,1-.968,1.427,2.311,2.311,0,0,1-1.507.5,3.776,3.776,0,0,1-.5-.029q-.212-.029-.361-.063V2.554q.126.023.3.046a2.911,2.911,0,0,0,.372.023,1.158,1.158,0,0,0,.848-.315,2.085,2.085,0,0,0,.493-.785l.183-.5ZM79.345,1.042V-7.14h1.467V-.2h3.415V1.042Zm8.64-6.325a2.767,2.767,0,0,1,1.828.527,2.011,2.011,0,0,1,.625,1.627V1.042h-1.02L89.131.182h-.046a2.732,2.732,0,0,1-.848.739,2.631,2.631,0,0,1-1.215.235,2.06,2.06,0,0,1-1.387-.47,1.81,1.81,0,0,1-.55-1.455,1.632,1.632,0,0,1,.7-1.444,4.123,4.123,0,0,1,2.137-.539l1.077-.034v-.309a1.081,1.081,0,0,0-.286-.848,1.174,1.174,0,0,0-.8-.252,3.051,3.051,0,0,0-.9.132,6.865,6.865,0,0,0-.854.327L85.7-4.745a4.754,4.754,0,0,1,1.049-.39A5.015,5.015,0,0,1,87.985-5.284Zm1.02,3.392-.756.023a2.329,2.329,0,0,0-1.318.327.952.952,0,0,0-.367.785.737.737,0,0,0,.258.636A1.127,1.127,0,0,0,87.5.068,1.615,1.615,0,0,0,88.57-.293a1.312,1.312,0,0,0,.435-1.071ZM94.654,0a2.652,2.652,0,0,0,.521-.052,4.537,4.537,0,0,0,.476-.12V.9a2.3,2.3,0,0,1-.6.183,4.16,4.16,0,0,1-.768.069,2.588,2.588,0,0,1-.968-.172,1.362,1.362,0,0,1-.682-.607,2.466,2.466,0,0,1-.252-1.226V-4.08h-.837v-.63l.917-.5.458-1.318h.905v1.364h1.765V-4.08H93.829V-.86a.829.829,0,0,0,.235.647A.848.848,0,0,0,94.654,0ZM99.4-5.284a2.636,2.636,0,0,1,1.977.745,2.842,2.842,0,0,1,.728,2.074v.733H98a1.893,1.893,0,0,0,.47,1.312,1.637,1.637,0,0,0,1.238.464,4.447,4.447,0,0,0,1.077-.12,5.765,5.765,0,0,0,.985-.35V.732a4.228,4.228,0,0,1-.951.321,5.843,5.843,0,0,1-1.18.1,3.567,3.567,0,0,1-1.616-.35A2.533,2.533,0,0,1,96.929-.247a3.582,3.582,0,0,1-.4-1.77,3.423,3.423,0,0,1,.785-2.429A2.718,2.718,0,0,1,99.4-5.284Zm0,1.066a1.257,1.257,0,0,0-.945.372,1.734,1.734,0,0,0-.418,1.106h2.67a1.767,1.767,0,0,0-.327-1.06A1.147,1.147,0,0,0,99.4-4.218Zm7.414-1.066q.149,0,.332.017t.3.04l-.126,1.341q-.115-.023-.281-.04a2.8,2.8,0,0,0-.281-.017,1.99,1.99,0,0,0-.859.189,1.524,1.524,0,0,0-.647.579,1.836,1.836,0,0,0-.246,1v3.22h-1.444V-5.169h1.112l.206,1.077h.069a2.6,2.6,0,0,1,.756-.842A1.842,1.842,0,0,1,106.813-5.284Z" transform="translate(49.41 43.649)"/></g></g></svg>