<svg xmlns="http://www.w3.org/2000/svg" width="35.175" height="33.512" viewBox="0 0 35.175 33.512">
  <g id="Group_9195" data-name="Group 9195" transform="translate(-19 -598.488)">
    <path id="Path_1407" data-name="Path 1407" d="M33.544,34.153h7.341c1.745.106,2.567-1.1,1.836-2.684l-.965-2.086.863-2.35L41.8,25.268l-.863,2.351-.715-1.549c-.737-1.583-2.188-1.736-3.234-.339L32.28,31.418C31.234,32.815,31.8,34.049,33.544,34.153Zm9.562-7.719a.8.8,0,0,0,1.066.388h0l4.662-2.159a1.759,1.759,0,1,0-1.478-3.192l-4.664,2.16A.805.805,0,0,0,42.3,24.7Z" transform="translate(-0.887 577.177)" fill="#ffd380"/>
    <path id="Path_1408" data-name="Path 1408" d="M36.748,43.778H25.994v4.794H36.748Zm7.56,6.249v4.8H55.062v-4.8ZM38.2,48.572H48.955V43.778H38.2Zm4.647-11.047H32.1v4.794h10.75ZM32.1,54.822h10.75v-4.8H32.1Zm-12.212,0H30.641v-4.8H19.887Z" transform="translate(-0.887 577.177)" fill="#1b8cf4"/>
  </g>
</svg>