<svg xmlns="http://www.w3.org/2000/svg" width="33.175" height="34.303" viewBox="0 0 33.175 34.303"><defs><style>.a{fill:#ffd380;}.b{fill:#1b8cf4;}</style></defs><g transform="translate(-4 -2.4)"><g transform="translate(4 2.4)"><path class="a" d="M19.726,22.458h3.668v3.668a.417.417,0,0,0,.433.433h2.091a.417.417,0,0,0,.433-.433V22.458h3.668a.417.417,0,0,0,.433-.433V19.934a.417.417,0,0,0-.433-.433H26.351V15.833a.417.417,0,0,0-.433-.433H23.827a.417.417,0,0,0-.433.433V19.5H19.726a.417.417,0,0,0-.433.433v2.091A.416.416,0,0,0,19.726,22.458Z" transform="translate(-14.415 -11.352)"/><path class="b" d="M37.175,20.249a4.826,4.826,0,0,0-9.556-.974,4.782,4.782,0,0,0,3.245,5.517v1.154a7.606,7.606,0,0,1-6.923,7.681A7.461,7.461,0,0,1,15.972,26.2V23.387a9.361,9.361,0,0,0,8.943-9.339V3.951A1.524,1.524,0,0,0,23.4,2.436H20.191a1.524,1.524,0,0,0-1.515,1.515h0a1.524,1.524,0,0,0,1.515,1.515h1.695v8.618a6.448,6.448,0,0,1-6.455,6.455H13.412a6.448,6.448,0,0,1-6.455-6.455V5.429H8.652a1.524,1.524,0,0,0,1.515-1.515h0A1.524,1.524,0,0,0,8.652,2.4H5.515A1.58,1.58,0,0,0,4,3.951v10.1a9.45,9.45,0,0,0,8.943,9.412v2.488a10.655,10.655,0,0,0,9.448,10.71A10.494,10.494,0,0,0,33.857,26.235V24.793A4.786,4.786,0,0,0,37.175,20.249Zm-4.832,1.839a1.808,1.808,0,0,1-1.8-1.8,1.8,1.8,0,1,1,3.606,0A1.808,1.808,0,0,1,32.343,22.089Z" transform="translate(-4 -2.4)"/></g></g></svg>