<svg xmlns="http://www.w3.org/2000/svg" width="35.174" height="33.875" viewBox="0 0 35.174 33.875"><defs><style>.a{fill:#1b8cf4;}.b{fill:#ffd380;}</style></defs><g transform="translate(-2.5 -4.409)"><g transform="translate(2.5 4.409)"><path class="a" d="M3.683,16.4a.342.342,0,0,0,.629.185,12.2,12.2,0,0,1,3.332-3.406,6.19,6.19,0,0,0,.407,6.22.368.368,0,0,0,.666-.185c.074-2.777,1.074-4.7,2.7-5.369A18.591,18.591,0,0,1,13.9,23.511C9.83,24.4,7.793,26.88,7.238,28.435a6.191,6.191,0,0,1,1.333,1c.074.074.185.148.259.222a1.61,1.61,0,0,1,.259-.222,6.051,6.051,0,0,1,4.295-1.814A6.322,6.322,0,0,1,17.716,29.4c.074.074.185.148.259.222a1.61,1.61,0,0,1,.259-.222,6.052,6.052,0,0,1,4.295-1.777A6.322,6.322,0,0,1,26.861,29.4c.074.074.185.148.259.222.074-.074.185-.148.259-.222a9.1,9.1,0,0,1,1.444-1.074c-1-2.036-5.406-5.295-10.33-5.295a5.468,5.468,0,0,0-.778.037,31.266,31.266,0,0,0-4.369-10.293c1.7-.778,3.814-.407,5.924,1.333a.348.348,0,0,0,.555-.37,6.008,6.008,0,0,0-4.443-4.443A13.058,13.058,0,0,1,19.9,8.738a.356.356,0,0,0,.222-.629A7.258,7.258,0,0,0,12.9,7.071a9.083,9.083,0,0,1,1-2.11.356.356,0,0,0-.444-.518A6.4,6.4,0,0,0,9.83,7.96,7.487,7.487,0,0,0,4.2,9.145a.346.346,0,0,0,.222.629,8.426,8.426,0,0,1,2.74.148A6.8,6.8,0,0,0,3.683,16.4Z" transform="translate(-3.239 -4.409)"/><path class="a" d="M30.861,72.537A4.185,4.185,0,0,0,27.9,73.8a2.019,2.019,0,0,1-3.184,0,4.073,4.073,0,0,0-5.924.037,2.019,2.019,0,0,1-3.184,0,4.033,4.033,0,0,0-5.924,0,2.038,2.038,0,0,1-1.592.741A2.074,2.074,0,0,1,6.5,73.8a4.049,4.049,0,0,0-2.962-1.3A1.035,1.035,0,0,0,2.5,73.537a1.012,1.012,0,0,0,1.037,1.037,2.074,2.074,0,0,1,1.592.778,4.033,4.033,0,0,0,5.924,0,2.019,2.019,0,0,1,3.184,0,4.033,4.033,0,0,0,5.924,0,2.019,2.019,0,0,1,3.184,0,4.038,4.038,0,0,0,2.962,1.259,4.185,4.185,0,0,0,2.962-1.259,2.074,2.074,0,0,1,1.592-.778A1.035,1.035,0,0,0,31.9,73.537.982.982,0,0,0,30.861,72.537Z" transform="translate(-2.5 -47.289)"/><path class="a" d="M30.861,84.737A4.185,4.185,0,0,0,27.9,86a2.019,2.019,0,0,1-3.184,0,4.073,4.073,0,0,0-5.924.037,2.019,2.019,0,0,1-3.184,0,4.033,4.033,0,0,0-5.924,0,2.038,2.038,0,0,1-1.592.741A2.074,2.074,0,0,1,6.5,86a4.049,4.049,0,0,0-2.962-1.3A1.035,1.035,0,0,0,2.5,85.737a1.012,1.012,0,0,0,1.037,1.037,2.074,2.074,0,0,1,1.592.778,4.033,4.033,0,0,0,5.924,0,2.019,2.019,0,0,1,3.184,0,4.033,4.033,0,0,0,5.924,0,2.019,2.019,0,0,1,3.184,0,4.038,4.038,0,0,0,2.962,1.259,4.185,4.185,0,0,0,2.962-1.259,2.074,2.074,0,0,1,1.592-.778A1.035,1.035,0,0,0,31.9,85.737.982.982,0,0,0,30.861,84.737Z" transform="translate(-2.5 -54.972)"/><path class="b" d="M68.38,32.961a3.48,3.48,0,1,0-3.48-3.48A3.476,3.476,0,0,0,68.38,32.961Z" transform="translate(-41.796 -18.006)"/><path class="b" d="M72.726,16.125a.917.917,0,0,0,.926-.926V13.126a.926.926,0,0,0-1.851,0V15.2A.966.966,0,0,0,72.726,16.125Z" transform="translate(-46.142 -9.315)"/><path class="b" d="M59.035,21.368a.892.892,0,0,0,.666.259.95.95,0,0,0,.666-.259.9.9,0,0,0,0-1.3l-1.444-1.444a.916.916,0,0,0-1.3,1.3Z" transform="translate(-37.042 -13.188)"/><path class="b" d="M52.026,34.751H54.1a.926.926,0,1,0,0-1.851H52.026a.917.917,0,0,0-.926.926A.966.966,0,0,0,52.026,34.751Z" transform="translate(-33.106 -22.351)"/><path class="b" d="M58.972,43.928l-1.444,1.444a.908.908,0,0,0,.666,1.555.95.95,0,0,0,.666-.259L60.3,45.224a.9.9,0,0,0,0-1.3A.938.938,0,0,0,58.972,43.928Z" transform="translate(-36.979 -29.121)"/><path class="b" d="M71.9,49.026V51.1a.926.926,0,1,0,1.851,0V49.026a.926.926,0,1,0-1.851,0Z" transform="translate(-46.205 -31.923)"/><path class="b" d="M84.124,43.928a.916.916,0,0,0-1.3,1.3l1.444,1.444a.892.892,0,0,0,.666.259.95.95,0,0,0,.666-.259.9.9,0,0,0,0-1.3Z" transform="translate(-52.911 -29.121)"/><path class="b" d="M89.9,33H87.826a.926.926,0,1,0,0,1.851H89.9A.926.926,0,1,0,89.9,33Z" transform="translate(-55.651 -22.414)"/><path class="b" d="M83.457,21.627a.95.95,0,0,0,.666-.259l1.444-1.444a.916.916,0,1,0-1.3-1.3l-1.444,1.444a.9.9,0,0,0,0,1.3A.867.867,0,0,0,83.457,21.627Z" transform="translate(-52.911 -13.188)"/></g></g></svg>