<svg xmlns="http://www.w3.org/2000/svg" width="18.75" height="28.991" viewBox="0 0 18.75 28.991">
  <g id="Group_9173" data-name="Group 9173" transform="translate(-279.125 -267.5)">
    <path id="Subtraction_31" data-name="Subtraction 31" d="M-3070.125-1815.009a2.051,2.051,0,0,1-2.049-2.048h-.341a2.05,2.05,0,0,1-2.047-2.048v-4.1c0-1.669-.793-2.778-1.8-4.182-.1-.136-.2-.274-.3-.415a10.883,10.883,0,0,1-2.346-6.72,8.162,8.162,0,0,1,2.744-6.1,9.244,9.244,0,0,1,6.131-2.377,9.245,9.245,0,0,1,6.131,2.377,8.163,8.163,0,0,1,2.744,6.1,10.882,10.882,0,0,1-2.346,6.72l-.263.369-.033.046c-1,1.4-1.8,2.513-1.8,4.182v4.1a2.051,2.051,0,0,1-2.048,2.048h-.341A2.051,2.051,0,0,1-3070.125-1815.009Zm-.682-2.048a.668.668,0,0,0,.682.683.668.668,0,0,0,.683-.683Zm-2.389-2.731v.682a.676.676,0,0,0,.682.683h4.779a.676.676,0,0,0,.682-.683v-.682Zm0-2.731v1.365h6.143v-1.365Zm3.757-18.051a.64.64,0,0,0-.707.621.714.714,0,0,0,.63.736,5.113,5.113,0,0,1,4.512,5.088,5.115,5.115,0,0,1-.224,1.5.671.671,0,0,0,.028.539.684.684,0,0,0,.41.367.6.6,0,0,0,.177.026.711.711,0,0,0,.687-.538,6.445,6.445,0,0,0,.288-1.9,6.482,6.482,0,0,0-5.728-6.442Z" transform="translate(3358.625 2111)" fill="#1b8cf4" stroke="rgba(0,0,0,0)" stroke-miterlimit="10" stroke-width="1"/>
  </g>
</svg>
