<svg xmlns="http://www.w3.org/2000/svg" width="17.75" height="27.99" viewBox="0 0 17.75 27.99">
  <g id="Group_9170" data-name="Group 9170" transform="translate(-24 -9)">
    <path id="Path_1433" data-name="Path 1433" d="M32.875,9c4.516,0,8.875,3.511,8.875,8.48A10.911,10.911,0,0,1,39.4,24.2c-1.127,1.595-2.091,2.766-2.091,4.6v4.1a2.058,2.058,0,0,1-2.048,2.048h-.341a2.048,2.048,0,0,1-4.1,0h-.341a2.058,2.058,0,0,1-2.048-2.048V28.8c0-1.831-.964-3-2.091-4.6A10.911,10.911,0,0,1,24,17.48C24,12.511,28.359,9,32.875,9Zm0,1.365c-3.81,0-7.51,2.949-7.51,7.115a9.314,9.314,0,0,0,2.091,5.931c.98,1.387,2.087,2.76,2.3,4.7h6.23c.217-1.944,1.324-3.317,2.3-4.7a9.314,9.314,0,0,0,2.091-5.931C40.385,13.314,36.685,10.365,32.875,10.365Zm.757,1.067a6.5,6.5,0,0,1,5.728,6.443,6.426,6.426,0,0,1-.288,1.9.682.682,0,1,1-1.3-.395,5.13,5.13,0,0,0-4.288-6.592.711.711,0,0,1-.629-.736A.654.654,0,0,1,33.632,11.432Zm2.315,18.049H29.8v1.365h6.144Zm0,2.731H29.8v.683a.676.676,0,0,0,.683.683h4.779a.676.676,0,0,0,.683-.683Zm-2.389,2.731H32.192a.683.683,0,0,0,1.365,0Z" fill="#32506e"/>
  </g>
</svg>
