<svg xmlns="http://www.w3.org/2000/svg" width="23.715" height="26.499" viewBox="0 0 23.715 26.499">
  <g id="Group_9172" data-name="Group 9172" transform="translate(-13 -8.712)">
    <path id="Path_1388" data-name="Path 1388" d="M21.364,35.179a.643.643,0,0,0,.641-.641V27.36a.643.643,0,0,1,.641-.641h4.422a.643.643,0,0,1,.641.641V34.57a.643.643,0,0,0,.641.641h5.16a3.214,3.214,0,0,0,3.2-3.2V19.733a2.671,2.671,0,0,0-.8-1.891l-9.55-8.525a2.18,2.18,0,0,0-2.98-.032L13.8,17.842a2.617,2.617,0,0,0-.8,1.891V31.975a3.214,3.214,0,0,0,3.2,3.2Z" fill="#1b8cf4"/>
  </g>
</svg>
