<svg xmlns="http://www.w3.org/2000/svg" width="23.715" height="26.499" viewBox="0 0 23.715 26.499">
  <g id="Group_9168" data-name="Group 9168" transform="translate(-13 -8.712)">
    <path id="Path_1388" data-name="Path 1388" d="M21.364,35.179a.643.643,0,0,0,.641-.641V27.36a.643.643,0,0,1,.641-.641h4.422a.643.643,0,0,1,.641.641V34.57a.643.643,0,0,0,.641.641h5.16a3.214,3.214,0,0,0,3.2-3.2V19.733a2.671,2.671,0,0,0-.8-1.891l-9.55-8.525a2.18,2.18,0,0,0-2.98-.032L13.8,17.842a2.617,2.617,0,0,0-.8,1.891V31.975a3.214,3.214,0,0,0,3.2,3.2Zm-7.082-3.2V19.733a1.511,1.511,0,0,1,.385-.961l9.582-8.557a.862.862,0,0,1,1.218.032l9.55,8.525a1.389,1.389,0,0,1,.417.961V31.975A1.928,1.928,0,0,1,33.51,33.9H28.991V27.36a1.928,1.928,0,0,0-1.923-1.923H22.646a1.928,1.928,0,0,0-1.923,1.923v6.57H16.2A1.978,1.978,0,0,1,14.282,31.975Z" fill="#32506e"/>
  </g>
</svg>
