<svg xmlns="http://www.w3.org/2000/svg" width="28.784" height="26.073" viewBox="0 0 28.784 26.073">
  <g id="Group_9171" data-name="Group 9171" transform="translate(-0.873 -0.09)">
    <path id="Path_243" data-name="Path 243" d="M23.935,1.728l-.2-.358a2.873,2.873,0,0,0-4.986,0L8.3,19.448l15.2-9.238a1.037,1.037,0,0,1,.934-.06C24.312,8.224,23.935,1.728,23.935,1.728Z" transform="translate(-6.464 0.165)" fill="#1b8cf4"/>
    <path id="Path_244" data-name="Path 244" d="M8.093,83.356a.949.949,0,0,1-.529-.756L1.025,86.549.4,87.646a2.746,2.746,0,0,0,2.381,4.12H24.5Z" transform="translate(0.844 -65.675)" fill="#1b8cf4"/>
    <path id="Path_245" data-name="Path 245" d="M101.426,33.939,90.5,15l1.305,18.116a1.028,1.028,0,0,1-.362.884l8.114,4.238A2.922,2.922,0,0,0,101.426,33.939Z" transform="translate(-72.162 -12.075)" fill="#1b8cf4"/>
  </g>
</svg>
