<svg xmlns="http://www.w3.org/2000/svg" width="28.784" height="26.073" viewBox="0 0 28.784 26.073">
  <g id="Group_9169" data-name="Group 9169" transform="translate(-0.873 -0.09)">
    <g id="Path_243" data-name="Path 243" transform="translate(-6.464 0.165)" fill="none">
      <path d="M23.935,1.728l-.2-.358a2.873,2.873,0,0,0-4.986,0L8.3,19.448l15.2-9.238a1.037,1.037,0,0,1,.934-.06C24.312,8.224,23.935,1.728,23.935,1.728Z" stroke="none"/>
      <path d="M 21.23534774780273 1.124994277954102 C 20.62971878051758 1.124994277954102 20.0906982421875 1.437955856323242 19.7934684753418 1.962154388427734 L 19.79101753234863 1.966485977172852 L 19.78852844238281 1.970785140991211 L 11.68818855285645 15.98467636108398 L 22.87430763244629 9.18526554107666 L 22.87726783752441 9.183475494384766 L 22.88022804260254 9.181694984436035 C 22.97087860107422 9.127306938171387 23.06500053405762 9.079719543457031 23.16183090209961 9.039140701293945 C 23.02908706665039 6.818445205688477 22.8127326965332 3.104616165161133 22.75259399414062 2.071088790893555 L 22.69248008728027 1.962884902954102 C 22.38612747192383 1.438051223754883 21.84205055236816 1.124994277954102 21.23534774780273 1.124994277954102 M 21.2353515625 -0.07500076293945312 C 22.20630645751953 -0.07500076293945312 23.17974853515625 0.4067554473876953 23.73599815368652 1.370265960693359 L 23.93465805053711 1.727855682373047 C 23.93465805053711 1.727855682373047 24.31211853027344 8.224084854125977 24.43131828308105 10.15110492706299 C 24.29736328125 10.09752178192139 24.1554069519043 10.06802558898926 24.01261138916016 10.06802940368652 C 23.83774948120117 10.06803321838379 23.66164398193359 10.11227512359619 23.49760818481445 10.21069526672363 L 8.299997329711914 19.44846534729004 L 18.74959754943848 1.370265960693359 C 19.29591751098633 0.4067554473876953 20.2643928527832 -0.07500076293945312 21.2353515625 -0.07500076293945312 Z" stroke="none" fill="#32506e"/>
    </g>
    <g id="Path_244" data-name="Path 244" transform="translate(0.844 -65.675)" fill="none">
      <path d="M8.093,83.356a.949.949,0,0,1-.529-.756L1.025,86.549.4,87.646a2.746,2.746,0,0,0,2.381,4.12H24.5Z" stroke="none"/>
      <path d="M 7.208583831787109 84.21631622314453 L 1.913387298583984 87.41485595703125 L 1.44451904296875 88.23894500732422 L 1.442647933959961 88.24223327636719 L 1.440757751464844 88.24550628662109 C 1.037649154663086 88.94374084472656 1.305868148803711 89.55905151367188 1.439888000488281 89.79119110107422 C 1.574237823486328 90.02387237548828 1.973989486694336 90.56507110595703 2.782548904418945 90.56507110595703 L 19.52425956726074 90.56507110595703 L 7.55919075012207 84.43091583251953 C 7.434322357177734 84.37035369873047 7.31712532043457 84.29834747314453 7.208583831787109 84.21631622314453 M 7.563508987426758 82.59999084472656 C 7.601308822631836 82.90234375 7.771379470825195 83.20469665527344 8.092628479003906 83.35588073730469 L 24.49529838562012 91.76507568359375 L 2.782548904418945 91.76507568359375 C 0.6660785675048828 91.76507568359375 -0.6567211151123047 89.47853088378906 0.4015178680419922 87.64552307128906 L 1.025117874145508 86.54948425292969 L 7.563508987426758 82.59999084472656 Z" stroke="none" fill="#32506e"/>
    </g>
    <g id="Path_245" data-name="Path 245" transform="translate(-72.162 -12.075)" fill="none">
      <path d="M101.426,33.939,90.5,15l1.305,18.116a1.028,1.028,0,0,1-.362.884l8.114,4.238A2.922,2.922,0,0,0,101.426,33.939Z" stroke="none"/>
      <path d="M 99.65791320800781 36.93567657470703 C 100.0156173706055 36.7570686340332 100.3086013793945 36.45021438598633 100.4749221801758 36.0673942565918 C 100.6027145385742 35.77328491210938 100.7613830566406 35.18408203125 100.3862991333008 34.53891372680664 L 92.07261657714844 20.12752914428711 L 93.00105285644531 33.01118087768555 C 93.01576232910156 33.16115188598633 93.01462554931641 33.31045150756836 92.99832153320312 33.45752716064453 L 99.65791320800781 36.93567657470703 M 99.55792236328125 38.23726272583008 L 91.44394683837891 33.9995231628418 C 91.68496704101562 33.77860260009766 91.84564208984375 33.47735214233398 91.80547332763672 33.1158332824707 L 90.49999237060547 15.00000286102295 L 101.4257354736328 33.93927383422852 C 102.4299392700195 35.66650390625 101.405647277832 37.81550216674805 99.55792236328125 38.23726272583008 Z" stroke="none" fill="#32506e"/>
    </g>
  </g>
</svg>
