<svg xmlns="http://www.w3.org/2000/svg" xmlns:xlink="http://www.w3.org/1999/xlink" width="59.286" height="52.699" viewBox="0 0 59.286 52.699">
  <defs>
    <linearGradient id="linear-gradient" x1="0.5" x2="0.5" y2="1" gradientUnits="objectBoundingBox">
      <stop offset="0" stop-color="#fff"/>
      <stop offset="1" stop-color="#d7ffc5"/>
    </linearGradient>
  </defs>
  <path id="Path_1646" data-name="Path 1646" d="M24.752-43.288H-18.756l-.857-4.572a2.47,2.47,0,0,0-2.428-2.015h-8.786a1.235,1.235,0,0,0-1.235,1.235v.823a1.235,1.235,0,0,0,1.235,1.235h8.1l7.2,38.386a6.563,6.563,0,0,0-1.713,4.431,6.587,6.587,0,0,0,6.587,6.587A6.587,6.587,0,0,0-4.066-3.764v-.007A7.739,7.739,0,0,0-4.95-7.057H9.992a7.739,7.739,0,0,0-.883,3.286v.007A6.587,6.587,0,0,0,15.7,2.824a6.587,6.587,0,0,0,6.587-6.587,6.566,6.566,0,0,0-2-4.721,2.472,2.472,0,0,0-2.4-1.866H-12.58l-1.235-6.587H20.292A2.47,2.47,0,0,0,22.711-18.9l4.46-21.409A2.47,2.47,0,0,0,24.752-43.288ZM-7.36-3.764A3.3,3.3,0,0,1-10.654-.47a3.3,3.3,0,0,1-3.294-3.294,3.3,3.3,0,0,1,3.294-3.294A3.3,3.3,0,0,1-7.36-3.764ZM15.7-.47A3.3,3.3,0,0,1,12.4-3.764,3.3,3.3,0,0,1,15.7-7.057a3.3,3.3,0,0,1,3.294,3.294A3.3,3.3,0,0,1,15.7-.47Zm3.927-19.762H-14.433l-3.705-19.762H23.74Z" transform="translate(32.063 49.875)" fill="url(#linear-gradient)"/>
</svg>
