<svg xmlns="http://www.w3.org/2000/svg" xmlns:xlink="http://www.w3.org/1999/xlink" width="64.122" height="57" viewBox="0 0 64.122 57">
  <defs>
    <linearGradient id="linear-gradient" x1="0.5" x2="0.5" y2="1" gradientUnits="objectBoundingBox">
      <stop offset="0" stop-color="#fff"/>
      <stop offset="1" stop-color="#ffc6c5"/>
    </linearGradient>
  </defs>
  <path id="Path_1643" data-name="Path 1643" d="M16.031-21.375a1.787,1.787,0,0,0-1.781,1.781,1.787,1.787,0,0,0,1.781,1.781,1.787,1.787,0,0,0,1.781-1.781A1.787,1.787,0,0,0,16.031-21.375Zm14.25-3.562H27A17.889,17.889,0,0,0,21.375-32v-7.192H19.594a15.665,15.665,0,0,0-9.006,2.917,9.555,9.555,0,0,0,.1-1.136A12.462,12.462,0,0,0-1.781-49.875,12.462,12.462,0,0,0-14.25-37.406,11.96,11.96,0,0,0-13.8-34.3,17.813,17.813,0,0,0-24.581-21.375h-1.247a2.675,2.675,0,0,1-2.616-3.206,2.742,2.742,0,0,1,2.728-2.138h.111a.67.67,0,0,0,.668-.668v-2.227a.67.67,0,0,0-.668-.668,6.377,6.377,0,0,0-6.4,5.41,6.239,6.239,0,0,0,6.179,7.058h.891A17.741,17.741,0,0,0-17.813-3.64V5.344a1.787,1.787,0,0,0,1.781,1.781H-3.563A1.787,1.787,0,0,0-1.781,5.344V0H5.344V5.344A1.787,1.787,0,0,0,7.125,7.125H19.594a1.787,1.787,0,0,0,1.781-1.781V-3.663a18.326,18.326,0,0,0,3.485-3.462h5.422a1.787,1.787,0,0,0,1.781-1.781v-14.25A1.787,1.787,0,0,0,30.281-24.937ZM-1.781-46.312a8.9,8.9,0,0,1,8.906,8.906,9.383,9.383,0,0,1-.178,1.781H-7.125a17.759,17.759,0,0,0-3.284.334,8.287,8.287,0,0,1-.278-2.115A8.9,8.9,0,0,1-1.781-46.312ZM28.5-10.687H23.078a18.74,18.74,0,0,1-5.266,5.266V3.562H8.906V-3.562H-5.344V3.562H-14.25V-5.422c-7.225-5.455-7.125-10.409-7.125-12.391a14.263,14.263,0,0,1,14.25-14.25h18a13.343,13.343,0,0,1,6.936-3.429v5.266c4.42,3.351,4.9,4.375,6.858,8.851H28.5Z" transform="translate(32.06 49.875)" fill="url(#linear-gradient)"/>
</svg>
