<svg xmlns="http://www.w3.org/2000/svg" xmlns:xlink="http://www.w3.org/1999/xlink" width="58.167" height="52.769" viewBox="0 0 58.167 52.769">
  <defs>
    <linearGradient id="linear-gradient" x1="0.5" x2="0.5" y2="1" gradientUnits="objectBoundingBox">
      <stop offset="0" stop-color="#fefffb"/>
      <stop offset="1" stop-color="#fbfec6"/>
    </linearGradient>
  </defs>
  <g id="noun_Health_1365833" transform="translate(-4.783 -8.913)">
    <path id="Path_1641" data-name="Path 1641" d="M57.539,14.357a17.725,17.725,0,0,0-23.7-1.23,17.692,17.692,0,0,0-24.444,25.4,1.922,1.922,0,0,0,.525.57l.25.263L31.115,60.305a3.843,3.843,0,0,0,5.438,0L57.539,39.378a17.744,17.744,0,0,0,0-25.021Zm-2.748,22.3L33.838,57.615,15.7,39.474h1.281a1.922,1.922,0,0,0,1.665-.961l5.169-8.968L28.3,43.189a1.922,1.922,0,0,0,1.633,1.281h.186a1.922,1.922,0,0,0,1.672-.974l5.425-9.608,2.716,4.638a1.922,1.922,0,0,0,1.659.948h5.727a1.922,1.922,0,0,0,0-3.843H42.69l-3.843-6.515a1.883,1.883,0,0,0-1.672-.948,1.922,1.922,0,0,0-1.659.974l-4.881,8.705L26.151,24.241a1.922,1.922,0,0,0-3.491-.359l-6.8,11.748H11.956a13.849,13.849,0,0,1,20.5-18.576,1.922,1.922,0,0,0,1.358.564h0a1.922,1.922,0,0,0,1.358-.564A13.869,13.869,0,0,1,54.791,36.662Z" transform="translate(0 0)" stroke="#ffd563" stroke-width="0.5" fill="url(#linear-gradient)"/>
  </g>
</svg>
