<svg xmlns="http://www.w3.org/2000/svg" xmlns:xlink="http://www.w3.org/1999/xlink" width="47.25" height="54" viewBox="0 0 47.25 54">
  <defs>
    <linearGradient id="linear-gradient" x1="0.5" x2="0.5" y2="1" gradientUnits="objectBoundingBox">
      <stop offset="0" stop-color="#fff"/>
      <stop offset="1" stop-color="#ffe4ba"/>
    </linearGradient>
  </defs>
  <path id="Path_1645" data-name="Path 1645" d="M-3.375-35.965A1.266,1.266,0,0,0-4.641-37.23H-8.859a1.266,1.266,0,0,0-1.266,1.266v4.219A1.266,1.266,0,0,0-8.859-30.48h4.219a1.266,1.266,0,0,0,1.266-1.266ZM8.859-37.23H4.641a1.266,1.266,0,0,0-1.266,1.266v4.219A1.266,1.266,0,0,0,4.641-30.48H8.859a1.266,1.266,0,0,0,1.266-1.266v-4.219A1.266,1.266,0,0,0,8.859-37.23Zm-13.5,10.125H-8.859a1.266,1.266,0,0,0-1.266,1.266v4.219a1.266,1.266,0,0,0,1.266,1.266h4.219a1.266,1.266,0,0,0,1.266-1.266V-25.84A1.266,1.266,0,0,0-4.641-27.105Zm13.5,0H4.641A1.266,1.266,0,0,0,3.375-25.84v4.219a1.266,1.266,0,0,0,1.266,1.266H8.859a1.266,1.266,0,0,0,1.266-1.266V-25.84A1.266,1.266,0,0,0,8.859-27.105ZM-4.641-16.98H-8.859a1.266,1.266,0,0,0-1.266,1.266V-11.5A1.266,1.266,0,0,0-8.859-10.23h4.219A1.266,1.266,0,0,0-3.375-11.5v-4.219A1.266,1.266,0,0,0-4.641-16.98Zm13.5,0H4.641a1.266,1.266,0,0,0-1.266,1.266V-11.5A1.266,1.266,0,0,0,4.641-10.23H8.859A1.266,1.266,0,0,0,10.125-11.5v-4.219A1.266,1.266,0,0,0,8.859-16.98ZM23.625,4.641a1.266,1.266,0,0,0-1.266-1.266H20.25V-44.719a2.531,2.531,0,0,0-2.531-2.531H-17.719a2.531,2.531,0,0,0-2.531,2.531V3.375h-2.109a1.266,1.266,0,0,0-1.266,1.266V6.75h47.25Zm-6.75-1.266H3.375V-5.59A1.266,1.266,0,0,0,2.109-6.855H-2.109A1.266,1.266,0,0,0-3.375-5.59V3.375h-13.5v-47.25h33.75Z" transform="translate(23.625 47.25)" fill="url(#linear-gradient)"/>
</svg>
