<svg xmlns="http://www.w3.org/2000/svg" xmlns:xlink="http://www.w3.org/1999/xlink" width="58.018" height="58" viewBox="0 0 58.018 58">
  <defs>
    <linearGradient id="linear-gradient" x1="0.5" x2="0.5" y2="1" gradientUnits="objectBoundingBox">
      <stop offset="0" stop-color="#fff"/>
      <stop offset="1" stop-color="#e9c5ff"/>
    </linearGradient>
  </defs>
  <path id="Path_1644" data-name="Path 1644" d="M28.294-43.943a8.914,8.914,0,0,0-8.373-5.932,8.869,8.869,0,0,0-7.079,3.562H-12.842a8.868,8.868,0,0,0-7.079-3.562,8.914,8.914,0,0,0-8.373,5.932A4.259,4.259,0,0,0-28.5-42.75a4.2,4.2,0,0,0,.478,1.781,4.212,4.212,0,0,0-.477,1.782,4.269,4.269,0,0,0,.205,1.193,8.914,8.914,0,0,0,8.373,5.932,8.87,8.87,0,0,0,7.077-3.559H12.844a8.87,8.87,0,0,0,7.077,3.559,8.913,8.913,0,0,0,8.373-5.932,4.269,4.269,0,0,0,.205-1.193,4.212,4.212,0,0,0-.477-1.782A3.559,3.559,0,0,0,28.294-43.943Zm-8.373,4.756h5.016a5.328,5.328,0,0,1-5.016,3.562A5.328,5.328,0,0,1,14.9-39.187H-14.9a5.328,5.328,0,0,1-5.016,3.562,5.329,5.329,0,0,1-5.018-3.562h5.016l1.781-1.781-1.781-1.781h-5.016a5.328,5.328,0,0,1,5.016-3.562A5.327,5.327,0,0,1-14.9-42.747H14.9a5.329,5.329,0,0,1,5.019-3.566,5.328,5.328,0,0,1,5.016,3.562H19.921L18.14-40.969ZM19.3-20.736l-1.687-5.177A8.907,8.907,0,0,0,9.147-32.06H-9.148a8.907,8.907,0,0,0-8.469,6.148L-19.3-20.736a8.9,8.9,0,0,0-5.634,8.267V1.781a5.349,5.349,0,0,0,5.344,5.344h1.781a5.349,5.349,0,0,0,5.344-5.344V0H12.469V1.781a5.349,5.349,0,0,0,5.344,5.344h1.781a5.349,5.349,0,0,0,5.344-5.344v-14.25A8.894,8.894,0,0,0,19.3-20.736Zm-33.531-4.073A5.679,5.679,0,0,1-9.157-28.5h18.3a5.333,5.333,0,0,1,5.081,3.688l1.119,3.434h-30.7Zm-1.8,26.591a1.784,1.784,0,0,1-1.781,1.781h-1.781a1.784,1.784,0,0,1-1.781-1.781V0h5.344Zm37.406,0a1.784,1.784,0,0,1-1.781,1.781H17.812a1.784,1.784,0,0,1-1.781-1.781V0h5.344Zm0-8.906v3.562h-42.75v-8.906a5.349,5.349,0,0,1,5.344-5.344H16.031a5.349,5.349,0,0,1,5.344,5.344Zm-8.1-8.015c-2.683,0-6.145,2.587-6.145,5.336,0,1.334.651,3.57,5.016,3.57l1.129-.011c2.89,0,4.987-1.87,4.987-4.448S16.16-15.14,13.27-15.14Zm0,6.223c-.347,0-.738.011-1.129.011-1.172,0-2.345-.1-2.345-.9,0-1.065,2.084-2.664,3.473-2.664s2.316.71,2.316,1.776S14.66-8.916,13.27-8.916ZM-13.27-15.14c-2.89,0-4.987,1.87-4.987,4.448s2.1,4.448,4.987,4.448l1.129.011c4.365,0,5.016-2.238,5.016-3.57C-7.125-12.552-10.587-15.14-13.27-15.14Zm1.129,6.234c-.391,0-.782-.011-1.129-.011-1.389,0-2.316-.71-2.316-1.776s.926-1.776,2.316-1.776S-9.8-10.869-9.8-9.8C-9.8-9.005-10.969-8.905-12.141-8.905Z" transform="translate(29 50.375)" stroke="#a58cfd" stroke-width="1" fill="url(#linear-gradient)"/>
</svg>
