<svg xmlns="http://www.w3.org/2000/svg" width="59.219" height="52.135" viewBox="0 0 59.219 52.135">
  <g id="noun_Purse_3362985" transform="translate(0.25 0.11)">
    <g id="Group_9164" data-name="Group 9164" transform="translate(0 0.215)">
      <path id="Path_1642" data-name="Path 1642" d="M45,20.678l4-.174a1.871,1.871,0,0,0,1.39-1.737V13.9H7.3a1.532,1.532,0,0,1-1.564-1.39A1.557,1.557,0,0,1,7.3,10.949h7.991l5.559-2.606H4.864a1.928,1.928,0,0,0-1.911,1.911v36.83A1.928,1.928,0,0,0,4.864,49H48.47a1.928,1.928,0,0,0,1.911-1.911V38.571A1.928,1.928,0,0,0,48.47,36.66H42.563A4.712,4.712,0,0,1,37.872,31.8V25.368C37.872,21.025,41.521,20.678,45,20.678ZM22.063,10.949h19.11l-3.648-7.3Zm22.411,0h5.907v-.695A1.928,1.928,0,0,0,48.47,8.343H43.084ZM41.694,5.39H48.47a4.822,4.822,0,0,1,4.691,4.864v8.513a3.741,3.741,0,0,1-.347,1.911h1.042a4.822,4.822,0,0,1,4.864,4.691V31.8a4.971,4.971,0,0,1-4.864,4.864H52.813a3.436,3.436,0,0,1,.347,1.911v8.513a4.671,4.671,0,0,1-4.691,4.691H4.864A4.822,4.822,0,0,1,0,47.084V10.254A4.971,4.971,0,0,1,4.864,5.39H26.928L37.7.352a1.461,1.461,0,0,1,1.911.695ZM53.855,23.631H42.563a1.641,1.641,0,0,0-1.737,1.737V31.8a1.786,1.786,0,0,0,1.737,1.911H53.855A1.928,1.928,0,0,0,55.766,31.8V25.368A1.786,1.786,0,0,0,53.855,23.631Z" transform="translate(0 -0.215)" fill="#dbf7ff" stroke="#dbf7ff" stroke-width="0.5"/>
      <circle id="Ellipse_214" data-name="Ellipse 214" cx="2.258" cy="2.258" r="2.258" transform="translate(43.779 26.195)" fill="#dbf7ff" stroke="#dbf7ff" stroke-width="0.5"/>
    </g>
  </g>
</svg>
